G04 #@! TF.GenerationSoftware,KiCad,Pcbnew,(5.0.0-rc2-100-g6d77e594b)*
G04 #@! TF.CreationDate,2018-09-14T16:14:06+02:00*
G04 #@! TF.ProjectId,BruCON_0x0a,427275434F4E5F307830612E6B696361,rev?*
G04 #@! TF.SameCoordinates,Original*
G04 #@! TF.FileFunction,Soldermask,Top*
G04 #@! TF.FilePolarity,Negative*
%FSLAX46Y46*%
G04 Gerber Fmt 4.6, Leading zero omitted, Abs format (unit mm)*
G04 Created by KiCad (PCBNEW (5.0.0-rc2-100-g6d77e594b)) date Fri Sep 14 16:14:06 2018*
%MOMM*%
%LPD*%
G01*
G04 APERTURE LIST*
%ADD10R,2.200000X2.900000*%
%ADD11R,2.900000X2.200000*%
%ADD12R,1.800000X1.520000*%
%ADD13R,1.900000X2.100000*%
%ADD14C,1.000000*%
%ADD15R,1.520000X1.800000*%
%ADD16R,1.050000X1.460000*%
%ADD17R,1.400000X3.550000*%
%ADD18R,2.000000X3.900000*%
%ADD19R,1.400000X1.220000*%
%ADD20O,2.100000X2.100000*%
%ADD21R,2.100000X2.100000*%
%ADD22C,1.575000*%
%ADD23C,0.100000*%
%ADD24C,2.300000*%
%ADD25C,1.875000*%
%ADD26C,0.850000*%
%ADD27R,1.300000X1.200000*%
%ADD28C,2.000000*%
%ADD29R,0.900000X1.230000*%
%ADD30R,2.550000X1.750000*%
%ADD31R,3.000000X3.000000*%
%ADD32R,0.700000X1.250000*%
%ADD33R,1.250000X0.700000*%
%ADD34R,1.500000X0.650000*%
%ADD35R,1.220000X1.400000*%
%ADD36C,1.924000*%
%ADD37R,6.400000X6.400000*%
%ADD38O,2.900000X1.300000*%
%ADD39O,1.300000X2.900000*%
%ADD40R,1.460000X1.050000*%
%ADD41R,1.200000X1.300000*%
G04 APERTURE END LIST*
D10*
G04 #@! TO.C,SW_A1*
X212400000Y-142060000D03*
X212400000Y-133960000D03*
X216900000Y-134010000D03*
X216900000Y-142060000D03*
G04 #@! TD*
G04 #@! TO.C,SW_A1*
X97400000Y-142060000D03*
X97400000Y-133960000D03*
X101900000Y-134010000D03*
X101900000Y-142060000D03*
G04 #@! TD*
G04 #@! TO.C,SW_A1*
X212400000Y-47060000D03*
X212400000Y-38960000D03*
X216900000Y-39010000D03*
X216900000Y-47060000D03*
G04 #@! TD*
D11*
G04 #@! TO.C,SW_DOWN1*
X149700000Y-147260000D03*
X141600000Y-147260000D03*
X141650000Y-142760000D03*
X149700000Y-142760000D03*
G04 #@! TD*
G04 #@! TO.C,SW_DOWN1*
X34700000Y-147260000D03*
X26600000Y-147260000D03*
X26650000Y-142760000D03*
X34700000Y-142760000D03*
G04 #@! TD*
G04 #@! TO.C,SW_DOWN1*
X149700000Y-52260000D03*
X141600000Y-52260000D03*
X141650000Y-47760000D03*
X149700000Y-47760000D03*
G04 #@! TD*
D12*
G04 #@! TO.C,R1*
X151410000Y-162370000D03*
X151410000Y-164130000D03*
G04 #@! TD*
G04 #@! TO.C,R1*
X36410000Y-162370000D03*
X36410000Y-164130000D03*
G04 #@! TD*
G04 #@! TO.C,R1*
X151410000Y-67370000D03*
X151410000Y-69130000D03*
G04 #@! TD*
D13*
G04 #@! TO.C,D2*
X157465000Y-153670000D03*
X161275000Y-153670000D03*
G04 #@! TD*
G04 #@! TO.C,D2*
X42465000Y-153670000D03*
X46275000Y-153670000D03*
G04 #@! TD*
G04 #@! TO.C,D2*
X157465000Y-58670000D03*
X161275000Y-58670000D03*
G04 #@! TD*
D14*
G04 #@! TO.C,tmp_ref16*
X145450000Y-172000000D03*
G04 #@! TD*
G04 #@! TO.C,tmp_ref16*
X30450000Y-172000000D03*
G04 #@! TD*
G04 #@! TO.C,tmp_ref16*
X145450000Y-77000000D03*
G04 #@! TD*
D15*
G04 #@! TO.C,M2*
X159040000Y-145990000D03*
X157280000Y-145990000D03*
G04 #@! TD*
G04 #@! TO.C,M2*
X44040000Y-145990000D03*
X42280000Y-145990000D03*
G04 #@! TD*
G04 #@! TO.C,M2*
X159040000Y-50990000D03*
X157280000Y-50990000D03*
G04 #@! TD*
G04 #@! TO.C,R26*
X152540000Y-145550000D03*
X154300000Y-145550000D03*
G04 #@! TD*
G04 #@! TO.C,R26*
X37540000Y-145550000D03*
X39300000Y-145550000D03*
G04 #@! TD*
G04 #@! TO.C,R26*
X152540000Y-50550000D03*
X154300000Y-50550000D03*
G04 #@! TD*
D14*
G04 #@! TO.C,tmp_ref16*
X144450000Y-170000000D03*
G04 #@! TD*
G04 #@! TO.C,tmp_ref16*
X29450000Y-170000000D03*
G04 #@! TD*
G04 #@! TO.C,tmp_ref16*
X144450000Y-75000000D03*
G04 #@! TD*
D12*
G04 #@! TO.C,C17*
X131040000Y-137020000D03*
X131040000Y-138780000D03*
G04 #@! TD*
G04 #@! TO.C,C17*
X16040000Y-137020000D03*
X16040000Y-138780000D03*
G04 #@! TD*
G04 #@! TO.C,C17*
X131040000Y-42020000D03*
X131040000Y-43780000D03*
G04 #@! TD*
D14*
G04 #@! TO.C,tmp_ref16*
X204000000Y-192850000D03*
G04 #@! TD*
G04 #@! TO.C,tmp_ref16*
X89050000Y-192850000D03*
G04 #@! TD*
G04 #@! TO.C,tmp_ref16*
X136350000Y-121100000D03*
G04 #@! TD*
G04 #@! TO.C,tmp_ref16*
X21350000Y-121100000D03*
G04 #@! TD*
G04 #@! TO.C,tmp_ref16*
X136350000Y-26100000D03*
G04 #@! TD*
G04 #@! TO.C,tmp_ref16*
X205000000Y-192450000D03*
G04 #@! TD*
G04 #@! TO.C,tmp_ref16*
X90000000Y-192450000D03*
G04 #@! TD*
G04 #@! TO.C,tmp_ref16*
X205000000Y-97450000D03*
G04 #@! TD*
D15*
G04 #@! TO.C,R14*
X172770000Y-163220000D03*
X171010000Y-163220000D03*
G04 #@! TD*
G04 #@! TO.C,R14*
X57770000Y-163220000D03*
X56010000Y-163220000D03*
G04 #@! TD*
G04 #@! TO.C,R14*
X172770000Y-68220000D03*
X171010000Y-68220000D03*
G04 #@! TD*
D16*
G04 #@! TO.C,U7*
X162080000Y-170440000D03*
X160180000Y-170440000D03*
X160180000Y-168240000D03*
X161130000Y-168240000D03*
X162080000Y-168240000D03*
G04 #@! TD*
G04 #@! TO.C,U7*
X47080000Y-170440000D03*
X45180000Y-170440000D03*
X45180000Y-168240000D03*
X46130000Y-168240000D03*
X47080000Y-168240000D03*
G04 #@! TD*
G04 #@! TO.C,U7*
X162080000Y-75440000D03*
X160180000Y-75440000D03*
X160180000Y-73240000D03*
X161130000Y-73240000D03*
X162080000Y-73240000D03*
G04 #@! TD*
D14*
G04 #@! TO.C,tmp_ref16*
X230850000Y-185200000D03*
G04 #@! TD*
G04 #@! TO.C,tmp_ref16*
X115850000Y-185200000D03*
G04 #@! TD*
G04 #@! TO.C,tmp_ref16*
X230800000Y-90150000D03*
G04 #@! TD*
D12*
G04 #@! TO.C,C6*
X154330000Y-178040000D03*
X154330000Y-179800000D03*
G04 #@! TD*
G04 #@! TO.C,C6*
X39330000Y-178040000D03*
X39330000Y-179800000D03*
G04 #@! TD*
G04 #@! TO.C,C6*
X154330000Y-83040000D03*
X154330000Y-84800000D03*
G04 #@! TD*
G04 #@! TO.C,C7*
X157360000Y-169170000D03*
X157360000Y-167410000D03*
G04 #@! TD*
G04 #@! TO.C,C7*
X42360000Y-169170000D03*
X42360000Y-167410000D03*
G04 #@! TD*
G04 #@! TO.C,C7*
X157360000Y-74170000D03*
X157360000Y-72410000D03*
G04 #@! TD*
D11*
G04 #@! TO.C,SW_RESET1*
X209470000Y-164380000D03*
X201370000Y-164380000D03*
X201420000Y-159880000D03*
X209470000Y-159880000D03*
G04 #@! TD*
G04 #@! TO.C,SW_RESET1*
X94470000Y-164380000D03*
X86370000Y-164380000D03*
X86420000Y-159880000D03*
X94470000Y-159880000D03*
G04 #@! TD*
G04 #@! TO.C,SW_RESET1*
X209470000Y-69380000D03*
X201370000Y-69380000D03*
X201420000Y-64880000D03*
X209470000Y-64880000D03*
G04 #@! TD*
D14*
G04 #@! TO.C,tmp_ref16*
X144900000Y-171000000D03*
G04 #@! TD*
G04 #@! TO.C,tmp_ref16*
X29900000Y-171000000D03*
G04 #@! TD*
G04 #@! TO.C,tmp_ref16*
X144850000Y-76050000D03*
G04 #@! TD*
D12*
G04 #@! TO.C,C1*
X197980000Y-192560000D03*
X197980000Y-190800000D03*
G04 #@! TD*
G04 #@! TO.C,C1*
X82980000Y-192560000D03*
X82980000Y-190800000D03*
G04 #@! TD*
G04 #@! TO.C,C1*
X197980000Y-97560000D03*
X197980000Y-95800000D03*
G04 #@! TD*
D17*
G04 #@! TO.C,J2*
X193170000Y-164615000D03*
X193170000Y-169665000D03*
X190630000Y-164615000D03*
X190630000Y-169665000D03*
X188090000Y-164615000D03*
X188090000Y-169665000D03*
X185550000Y-164615000D03*
X185550000Y-169665000D03*
X183010000Y-164615000D03*
X183010000Y-169665000D03*
X180470000Y-164615000D03*
X180470000Y-169665000D03*
X177930000Y-164615000D03*
X177930000Y-169665000D03*
G04 #@! TD*
G04 #@! TO.C,J2*
X78170000Y-164615000D03*
X78170000Y-169665000D03*
X75630000Y-164615000D03*
X75630000Y-169665000D03*
X73090000Y-164615000D03*
X73090000Y-169665000D03*
X70550000Y-164615000D03*
X70550000Y-169665000D03*
X68010000Y-164615000D03*
X68010000Y-169665000D03*
X65470000Y-164615000D03*
X65470000Y-169665000D03*
X62930000Y-164615000D03*
X62930000Y-169665000D03*
G04 #@! TD*
G04 #@! TO.C,J2*
X193170000Y-69615000D03*
X193170000Y-74665000D03*
X190630000Y-69615000D03*
X190630000Y-74665000D03*
X188090000Y-69615000D03*
X188090000Y-74665000D03*
X185550000Y-69615000D03*
X185550000Y-74665000D03*
X183010000Y-69615000D03*
X183010000Y-74665000D03*
X180470000Y-69615000D03*
X180470000Y-74665000D03*
X177930000Y-69615000D03*
X177930000Y-74665000D03*
G04 #@! TD*
D15*
G04 #@! TO.C,C4*
X160880000Y-173230000D03*
X159120000Y-173230000D03*
G04 #@! TD*
G04 #@! TO.C,C4*
X45880000Y-173230000D03*
X44120000Y-173230000D03*
G04 #@! TD*
G04 #@! TO.C,C4*
X160880000Y-78230000D03*
X159120000Y-78230000D03*
G04 #@! TD*
D18*
G04 #@! TO.C,CP1*
X156360000Y-122090000D03*
X156360000Y-127490000D03*
G04 #@! TD*
G04 #@! TO.C,CP1*
X41360000Y-122090000D03*
X41360000Y-127490000D03*
G04 #@! TD*
G04 #@! TO.C,CP1*
X156360000Y-27090000D03*
X156360000Y-32490000D03*
G04 #@! TD*
D14*
G04 #@! TO.C,tmp_ref16*
X176700000Y-105450000D03*
G04 #@! TD*
G04 #@! TO.C,tmp_ref16*
X61700000Y-105450000D03*
G04 #@! TD*
G04 #@! TO.C,tmp_ref16*
X176750000Y-10450000D03*
G04 #@! TD*
D19*
G04 #@! TO.C,LED3*
X164250000Y-164770000D03*
X164250000Y-166370000D03*
G04 #@! TD*
G04 #@! TO.C,LED3*
X49250000Y-164770000D03*
X49250000Y-166370000D03*
G04 #@! TD*
G04 #@! TO.C,LED3*
X164250000Y-69770000D03*
X164250000Y-71370000D03*
G04 #@! TD*
D14*
G04 #@! TO.C,tmp_ref16*
X134000000Y-120550000D03*
G04 #@! TD*
G04 #@! TO.C,tmp_ref16*
X19000000Y-120550000D03*
G04 #@! TD*
G04 #@! TO.C,tmp_ref16*
X134000000Y-25550000D03*
G04 #@! TD*
D12*
G04 #@! TO.C,R20*
X154360000Y-130530000D03*
X154360000Y-132290000D03*
G04 #@! TD*
G04 #@! TO.C,R20*
X39360000Y-130530000D03*
X39360000Y-132290000D03*
G04 #@! TD*
G04 #@! TO.C,R20*
X154360000Y-35530000D03*
X154360000Y-37290000D03*
G04 #@! TD*
G04 #@! TO.C,C11*
X147150000Y-164100000D03*
X147150000Y-162340000D03*
G04 #@! TD*
G04 #@! TO.C,C11*
X32150000Y-164100000D03*
X32150000Y-162340000D03*
G04 #@! TD*
G04 #@! TO.C,C11*
X147150000Y-69100000D03*
X147150000Y-67340000D03*
G04 #@! TD*
D10*
G04 #@! TO.C,SW_B1*
X221400000Y-142060000D03*
X221400000Y-133960000D03*
X225900000Y-134010000D03*
X225900000Y-142060000D03*
G04 #@! TD*
G04 #@! TO.C,SW_B1*
X106400000Y-142060000D03*
X106400000Y-133960000D03*
X110900000Y-134010000D03*
X110900000Y-142060000D03*
G04 #@! TD*
G04 #@! TO.C,SW_B1*
X221400000Y-47060000D03*
X221400000Y-38960000D03*
X225900000Y-39010000D03*
X225900000Y-47060000D03*
G04 #@! TD*
D14*
G04 #@! TO.C,tmp_ref16*
X218650000Y-117450000D03*
G04 #@! TD*
G04 #@! TO.C,tmp_ref16*
X103650000Y-117450000D03*
G04 #@! TD*
G04 #@! TO.C,tmp_ref16*
X218650000Y-22450000D03*
G04 #@! TD*
D20*
G04 #@! TO.C,J3*
X145160000Y-158030000D03*
D21*
X145160000Y-155490000D03*
G04 #@! TD*
D20*
G04 #@! TO.C,J3*
X30160000Y-158030000D03*
D21*
X30160000Y-155490000D03*
G04 #@! TD*
D20*
G04 #@! TO.C,J3*
X145160000Y-63030000D03*
D21*
X145160000Y-60490000D03*
G04 #@! TD*
D14*
G04 #@! TO.C,tmp_ref16*
X231800000Y-185400000D03*
G04 #@! TD*
G04 #@! TO.C,tmp_ref16*
X116800000Y-185450000D03*
G04 #@! TD*
G04 #@! TO.C,tmp_ref16*
X231800000Y-90350000D03*
G04 #@! TD*
G04 #@! TO.C,tmp_ref16*
X134800000Y-120750000D03*
G04 #@! TD*
G04 #@! TO.C,tmp_ref16*
X19800000Y-120750000D03*
G04 #@! TD*
G04 #@! TO.C,tmp_ref16*
X134800000Y-25750000D03*
G04 #@! TD*
D12*
G04 #@! TO.C,R18*
X221450000Y-171210000D03*
X221450000Y-169450000D03*
G04 #@! TD*
G04 #@! TO.C,R18*
X106450000Y-171210000D03*
X106450000Y-169450000D03*
G04 #@! TD*
G04 #@! TO.C,R18*
X221450000Y-76210000D03*
X221450000Y-74450000D03*
G04 #@! TD*
D22*
G04 #@! TO.C,J4*
X137435235Y-156849623D03*
D23*
G36*
X136425845Y-157810762D02*
X136904042Y-155561023D01*
X138444625Y-155888484D01*
X137966428Y-158138223D01*
X136425845Y-157810762D01*
X136425845Y-157810762D01*
G37*
D22*
X135791947Y-156500331D03*
D23*
G36*
X134782557Y-157461470D02*
X135260754Y-155211731D01*
X136801337Y-155539192D01*
X136323140Y-157788931D01*
X134782557Y-157461470D01*
X134782557Y-157461470D01*
G37*
D24*
X139460000Y-157280000D03*
D23*
G36*
X137863722Y-158116392D02*
X138341919Y-155866653D01*
X141056278Y-156443608D01*
X140578081Y-158693347D01*
X137863722Y-158116392D01*
X137863722Y-158116392D01*
G37*
D24*
X133767181Y-156069954D03*
D23*
G36*
X132170903Y-156906346D02*
X132649100Y-154656607D01*
X135363459Y-155233562D01*
X134885262Y-157483301D01*
X132170903Y-156906346D01*
X132170903Y-156906346D01*
G37*
D25*
X139500476Y-154937220D03*
D23*
G36*
X138323573Y-155964987D02*
X138843352Y-153519618D01*
X140677379Y-153909453D01*
X140157600Y-156354822D01*
X138323573Y-155964987D01*
X138323573Y-155964987D01*
G37*
D25*
X134683099Y-153913255D03*
D23*
G36*
X133506196Y-154941022D02*
X134025975Y-152495653D01*
X135860002Y-152885488D01*
X135340223Y-155330857D01*
X133506196Y-154941022D01*
X133506196Y-154941022D01*
G37*
D26*
X138438228Y-154343390D03*
D23*
G36*
X137837474Y-155125579D02*
X138207557Y-153384476D01*
X139038982Y-153561201D01*
X138668899Y-155302304D01*
X137837474Y-155125579D01*
X137837474Y-155125579D01*
G37*
D26*
X137802432Y-154208247D03*
D23*
G36*
X137201678Y-154990436D02*
X137571761Y-153249333D01*
X138403186Y-153426058D01*
X138033103Y-155167161D01*
X137201678Y-154990436D01*
X137201678Y-154990436D01*
G37*
D26*
X137166636Y-154073105D03*
D23*
G36*
X136565882Y-154855294D02*
X136935965Y-153114191D01*
X137767390Y-153290916D01*
X137397307Y-155032019D01*
X136565882Y-154855294D01*
X136565882Y-154855294D01*
G37*
D26*
X136530840Y-153937962D03*
D23*
G36*
X135930086Y-154720151D02*
X136300169Y-152979048D01*
X137131594Y-153155773D01*
X136761511Y-154896876D01*
X135930086Y-154720151D01*
X135930086Y-154720151D01*
G37*
D26*
X135895044Y-153802819D03*
D23*
G36*
X135294290Y-154585008D02*
X135664373Y-152843905D01*
X136495798Y-153020630D01*
X136125715Y-154761733D01*
X135294290Y-154585008D01*
X135294290Y-154585008D01*
G37*
G04 #@! TD*
D22*
G04 #@! TO.C,J4*
X22435235Y-156849623D03*
D23*
G36*
X21425845Y-157810762D02*
X21904042Y-155561023D01*
X23444625Y-155888484D01*
X22966428Y-158138223D01*
X21425845Y-157810762D01*
X21425845Y-157810762D01*
G37*
D22*
X20791947Y-156500331D03*
D23*
G36*
X19782557Y-157461470D02*
X20260754Y-155211731D01*
X21801337Y-155539192D01*
X21323140Y-157788931D01*
X19782557Y-157461470D01*
X19782557Y-157461470D01*
G37*
D24*
X24460000Y-157280000D03*
D23*
G36*
X22863722Y-158116392D02*
X23341919Y-155866653D01*
X26056278Y-156443608D01*
X25578081Y-158693347D01*
X22863722Y-158116392D01*
X22863722Y-158116392D01*
G37*
D24*
X18767181Y-156069954D03*
D23*
G36*
X17170903Y-156906346D02*
X17649100Y-154656607D01*
X20363459Y-155233562D01*
X19885262Y-157483301D01*
X17170903Y-156906346D01*
X17170903Y-156906346D01*
G37*
D25*
X24500476Y-154937220D03*
D23*
G36*
X23323573Y-155964987D02*
X23843352Y-153519618D01*
X25677379Y-153909453D01*
X25157600Y-156354822D01*
X23323573Y-155964987D01*
X23323573Y-155964987D01*
G37*
D25*
X19683099Y-153913255D03*
D23*
G36*
X18506196Y-154941022D02*
X19025975Y-152495653D01*
X20860002Y-152885488D01*
X20340223Y-155330857D01*
X18506196Y-154941022D01*
X18506196Y-154941022D01*
G37*
D26*
X23438228Y-154343390D03*
D23*
G36*
X22837474Y-155125579D02*
X23207557Y-153384476D01*
X24038982Y-153561201D01*
X23668899Y-155302304D01*
X22837474Y-155125579D01*
X22837474Y-155125579D01*
G37*
D26*
X22802432Y-154208247D03*
D23*
G36*
X22201678Y-154990436D02*
X22571761Y-153249333D01*
X23403186Y-153426058D01*
X23033103Y-155167161D01*
X22201678Y-154990436D01*
X22201678Y-154990436D01*
G37*
D26*
X22166636Y-154073105D03*
D23*
G36*
X21565882Y-154855294D02*
X21935965Y-153114191D01*
X22767390Y-153290916D01*
X22397307Y-155032019D01*
X21565882Y-154855294D01*
X21565882Y-154855294D01*
G37*
D26*
X21530840Y-153937962D03*
D23*
G36*
X20930086Y-154720151D02*
X21300169Y-152979048D01*
X22131594Y-153155773D01*
X21761511Y-154896876D01*
X20930086Y-154720151D01*
X20930086Y-154720151D01*
G37*
D26*
X20895044Y-153802819D03*
D23*
G36*
X20294290Y-154585008D02*
X20664373Y-152843905D01*
X21495798Y-153020630D01*
X21125715Y-154761733D01*
X20294290Y-154585008D01*
X20294290Y-154585008D01*
G37*
G04 #@! TD*
D22*
G04 #@! TO.C,J4*
X137435235Y-61849623D03*
D23*
G36*
X136425845Y-62810762D02*
X136904042Y-60561023D01*
X138444625Y-60888484D01*
X137966428Y-63138223D01*
X136425845Y-62810762D01*
X136425845Y-62810762D01*
G37*
D22*
X135791947Y-61500331D03*
D23*
G36*
X134782557Y-62461470D02*
X135260754Y-60211731D01*
X136801337Y-60539192D01*
X136323140Y-62788931D01*
X134782557Y-62461470D01*
X134782557Y-62461470D01*
G37*
D24*
X139460000Y-62280000D03*
D23*
G36*
X137863722Y-63116392D02*
X138341919Y-60866653D01*
X141056278Y-61443608D01*
X140578081Y-63693347D01*
X137863722Y-63116392D01*
X137863722Y-63116392D01*
G37*
D24*
X133767181Y-61069954D03*
D23*
G36*
X132170903Y-61906346D02*
X132649100Y-59656607D01*
X135363459Y-60233562D01*
X134885262Y-62483301D01*
X132170903Y-61906346D01*
X132170903Y-61906346D01*
G37*
D25*
X139500476Y-59937220D03*
D23*
G36*
X138323573Y-60964987D02*
X138843352Y-58519618D01*
X140677379Y-58909453D01*
X140157600Y-61354822D01*
X138323573Y-60964987D01*
X138323573Y-60964987D01*
G37*
D25*
X134683099Y-58913255D03*
D23*
G36*
X133506196Y-59941022D02*
X134025975Y-57495653D01*
X135860002Y-57885488D01*
X135340223Y-60330857D01*
X133506196Y-59941022D01*
X133506196Y-59941022D01*
G37*
D26*
X138438228Y-59343390D03*
D23*
G36*
X137837474Y-60125579D02*
X138207557Y-58384476D01*
X139038982Y-58561201D01*
X138668899Y-60302304D01*
X137837474Y-60125579D01*
X137837474Y-60125579D01*
G37*
D26*
X137802432Y-59208247D03*
D23*
G36*
X137201678Y-59990436D02*
X137571761Y-58249333D01*
X138403186Y-58426058D01*
X138033103Y-60167161D01*
X137201678Y-59990436D01*
X137201678Y-59990436D01*
G37*
D26*
X137166636Y-59073105D03*
D23*
G36*
X136565882Y-59855294D02*
X136935965Y-58114191D01*
X137767390Y-58290916D01*
X137397307Y-60032019D01*
X136565882Y-59855294D01*
X136565882Y-59855294D01*
G37*
D26*
X136530840Y-58937962D03*
D23*
G36*
X135930086Y-59720151D02*
X136300169Y-57979048D01*
X137131594Y-58155773D01*
X136761511Y-59896876D01*
X135930086Y-59720151D01*
X135930086Y-59720151D01*
G37*
D26*
X135895044Y-58802819D03*
D23*
G36*
X135294290Y-59585008D02*
X135664373Y-57843905D01*
X136495798Y-58020630D01*
X136125715Y-59761733D01*
X135294290Y-59585008D01*
X135294290Y-59585008D01*
G37*
G04 #@! TD*
D27*
G04 #@! TO.C,Q1*
X226120000Y-172170000D03*
X228120000Y-171220000D03*
X228120000Y-173120000D03*
G04 #@! TD*
G04 #@! TO.C,Q1*
X111120000Y-172170000D03*
X113120000Y-171220000D03*
X113120000Y-173120000D03*
G04 #@! TD*
G04 #@! TO.C,Q1*
X226120000Y-77170000D03*
X228120000Y-76220000D03*
X228120000Y-78120000D03*
G04 #@! TD*
D14*
G04 #@! TO.C,tmp_ref16*
X216500000Y-115450000D03*
G04 #@! TD*
G04 #@! TO.C,tmp_ref16*
X101500000Y-115450000D03*
G04 #@! TD*
G04 #@! TO.C,tmp_ref16*
X216500000Y-20450000D03*
G04 #@! TD*
D28*
G04 #@! TO.C,REF\002A\002A*
X203300000Y-188600000D03*
G04 #@! TD*
G04 #@! TO.C,REF\002A\002A*
X88300000Y-188600000D03*
G04 #@! TD*
G04 #@! TO.C,REF\002A\002A*
X203300000Y-93600000D03*
G04 #@! TD*
D12*
G04 #@! TO.C,C15*
X139200000Y-144130000D03*
X139200000Y-145890000D03*
G04 #@! TD*
G04 #@! TO.C,C15*
X24200000Y-144130000D03*
X24200000Y-145890000D03*
G04 #@! TD*
G04 #@! TO.C,C15*
X139200000Y-49130000D03*
X139200000Y-50890000D03*
G04 #@! TD*
D11*
G04 #@! TO.C,SW_PROG1*
X201400000Y-166960000D03*
X209500000Y-166960000D03*
X209450000Y-171460000D03*
X201400000Y-171460000D03*
G04 #@! TD*
G04 #@! TO.C,SW_PROG1*
X86400000Y-166960000D03*
X94500000Y-166960000D03*
X94450000Y-171460000D03*
X86400000Y-171460000D03*
G04 #@! TD*
G04 #@! TO.C,SW_PROG1*
X201400000Y-71960000D03*
X209500000Y-71960000D03*
X209450000Y-76460000D03*
X201400000Y-76460000D03*
G04 #@! TD*
D14*
G04 #@! TO.C,tmp_ref16*
X175750000Y-105700000D03*
G04 #@! TD*
G04 #@! TO.C,tmp_ref16*
X60750000Y-105700000D03*
G04 #@! TD*
G04 #@! TO.C,tmp_ref16*
X175800000Y-10700000D03*
G04 #@! TD*
D15*
G04 #@! TO.C,R25*
X222870000Y-146790000D03*
X224630000Y-146790000D03*
G04 #@! TD*
G04 #@! TO.C,R25*
X107870000Y-146790000D03*
X109630000Y-146790000D03*
G04 #@! TD*
G04 #@! TO.C,R25*
X222870000Y-51790000D03*
X224630000Y-51790000D03*
G04 #@! TD*
D12*
G04 #@! TO.C,R23*
X132980000Y-137000000D03*
X132980000Y-138760000D03*
G04 #@! TD*
G04 #@! TO.C,R23*
X17980000Y-137000000D03*
X17980000Y-138760000D03*
G04 #@! TD*
G04 #@! TO.C,R23*
X132980000Y-42000000D03*
X132980000Y-43760000D03*
G04 #@! TD*
D15*
G04 #@! TO.C,C9*
X167580000Y-169350000D03*
X169340000Y-169350000D03*
G04 #@! TD*
G04 #@! TO.C,C9*
X52580000Y-169350000D03*
X54340000Y-169350000D03*
G04 #@! TD*
G04 #@! TO.C,C9*
X167580000Y-74350000D03*
X169340000Y-74350000D03*
G04 #@! TD*
D14*
G04 #@! TO.C,tmp_ref16*
X174850000Y-105900000D03*
G04 #@! TD*
G04 #@! TO.C,tmp_ref16*
X59850000Y-105900000D03*
G04 #@! TD*
G04 #@! TO.C,tmp_ref16*
X174850000Y-10900000D03*
G04 #@! TD*
D27*
G04 #@! TO.C,Q2*
X168330000Y-173030000D03*
X168330000Y-174930000D03*
X170330000Y-173980000D03*
G04 #@! TD*
G04 #@! TO.C,Q2*
X53330000Y-173030000D03*
X53330000Y-174930000D03*
X55330000Y-173980000D03*
G04 #@! TD*
G04 #@! TO.C,Q2*
X168330000Y-78030000D03*
X168330000Y-79930000D03*
X170330000Y-78980000D03*
G04 #@! TD*
D29*
G04 #@! TO.C,U3*
X167810000Y-159060000D03*
X168760000Y-159060000D03*
X166860000Y-159060000D03*
X167810000Y-161760000D03*
X168760000Y-161760000D03*
X166860000Y-161760000D03*
D30*
X167810000Y-160410000D03*
G04 #@! TD*
D29*
G04 #@! TO.C,U3*
X52810000Y-159060000D03*
X53760000Y-159060000D03*
X51860000Y-159060000D03*
X52810000Y-161760000D03*
X53760000Y-161760000D03*
X51860000Y-161760000D03*
D30*
X52810000Y-160410000D03*
G04 #@! TD*
D29*
G04 #@! TO.C,U3*
X167810000Y-64060000D03*
X168760000Y-64060000D03*
X166860000Y-64060000D03*
X167810000Y-66760000D03*
X168760000Y-66760000D03*
X166860000Y-66760000D03*
D30*
X167810000Y-65410000D03*
G04 #@! TD*
D31*
G04 #@! TO.C,U2*
X160970000Y-178840000D03*
D32*
X159720000Y-176890000D03*
X160220000Y-176890000D03*
X160720000Y-176890000D03*
X161220000Y-176890000D03*
X161720000Y-176890000D03*
X162220000Y-176890000D03*
D33*
X162920000Y-177590000D03*
X162920000Y-178090000D03*
X162920000Y-178590000D03*
X162920000Y-179090000D03*
X162920000Y-179590000D03*
X162920000Y-180090000D03*
D32*
X162220000Y-180790000D03*
X161720000Y-180790000D03*
X161220000Y-180790000D03*
X160720000Y-180790000D03*
X160220000Y-180790000D03*
X159720000Y-180790000D03*
D33*
X159020000Y-180090000D03*
X159020000Y-179590000D03*
X159020000Y-179090000D03*
X159020000Y-178590000D03*
X159020000Y-178090000D03*
X159020000Y-177590000D03*
G04 #@! TD*
D31*
G04 #@! TO.C,U2*
X45970000Y-178840000D03*
D32*
X44720000Y-176890000D03*
X45220000Y-176890000D03*
X45720000Y-176890000D03*
X46220000Y-176890000D03*
X46720000Y-176890000D03*
X47220000Y-176890000D03*
D33*
X47920000Y-177590000D03*
X47920000Y-178090000D03*
X47920000Y-178590000D03*
X47920000Y-179090000D03*
X47920000Y-179590000D03*
X47920000Y-180090000D03*
D32*
X47220000Y-180790000D03*
X46720000Y-180790000D03*
X46220000Y-180790000D03*
X45720000Y-180790000D03*
X45220000Y-180790000D03*
X44720000Y-180790000D03*
D33*
X44020000Y-180090000D03*
X44020000Y-179590000D03*
X44020000Y-179090000D03*
X44020000Y-178590000D03*
X44020000Y-178090000D03*
X44020000Y-177590000D03*
G04 #@! TD*
D31*
G04 #@! TO.C,U2*
X160970000Y-83840000D03*
D32*
X159720000Y-81890000D03*
X160220000Y-81890000D03*
X160720000Y-81890000D03*
X161220000Y-81890000D03*
X161720000Y-81890000D03*
X162220000Y-81890000D03*
D33*
X162920000Y-82590000D03*
X162920000Y-83090000D03*
X162920000Y-83590000D03*
X162920000Y-84090000D03*
X162920000Y-84590000D03*
X162920000Y-85090000D03*
D32*
X162220000Y-85790000D03*
X161720000Y-85790000D03*
X161220000Y-85790000D03*
X160720000Y-85790000D03*
X160220000Y-85790000D03*
X159720000Y-85790000D03*
D33*
X159020000Y-85090000D03*
X159020000Y-84590000D03*
X159020000Y-84090000D03*
X159020000Y-83590000D03*
X159020000Y-83090000D03*
X159020000Y-82590000D03*
G04 #@! TD*
D15*
G04 #@! TO.C,C13*
X156950000Y-156540000D03*
X158710000Y-156540000D03*
G04 #@! TD*
G04 #@! TO.C,C13*
X41950000Y-156540000D03*
X43710000Y-156540000D03*
G04 #@! TD*
G04 #@! TO.C,C13*
X156950000Y-61540000D03*
X158710000Y-61540000D03*
G04 #@! TD*
D27*
G04 #@! TO.C,Q3*
X168310000Y-177600000D03*
X170310000Y-176650000D03*
X170310000Y-178550000D03*
G04 #@! TD*
G04 #@! TO.C,Q3*
X53310000Y-177600000D03*
X55310000Y-176650000D03*
X55310000Y-178550000D03*
G04 #@! TD*
G04 #@! TO.C,Q3*
X168310000Y-82600000D03*
X170310000Y-81650000D03*
X170310000Y-83550000D03*
G04 #@! TD*
D12*
G04 #@! TO.C,R16*
X154900000Y-153690000D03*
X154900000Y-151930000D03*
G04 #@! TD*
G04 #@! TO.C,R16*
X39900000Y-153690000D03*
X39900000Y-151930000D03*
G04 #@! TD*
G04 #@! TO.C,R16*
X154900000Y-58690000D03*
X154900000Y-56930000D03*
G04 #@! TD*
G04 #@! TO.C,R5*
X200710000Y-173470000D03*
X200710000Y-175230000D03*
G04 #@! TD*
G04 #@! TO.C,R5*
X85710000Y-173470000D03*
X85710000Y-175230000D03*
G04 #@! TD*
G04 #@! TO.C,R5*
X200710000Y-78470000D03*
X200710000Y-80230000D03*
G04 #@! TD*
D34*
G04 #@! TO.C,J1*
X168220000Y-153690000D03*
X173720000Y-153690000D03*
X168220000Y-154190000D03*
X173720000Y-154190000D03*
X168220000Y-154690000D03*
X173720000Y-154690000D03*
X168220000Y-155190000D03*
X173720000Y-155190000D03*
X168220000Y-155690000D03*
X173720000Y-155690000D03*
G04 #@! TD*
G04 #@! TO.C,J1*
X53220000Y-153690000D03*
X58720000Y-153690000D03*
X53220000Y-154190000D03*
X58720000Y-154190000D03*
X53220000Y-154690000D03*
X58720000Y-154690000D03*
X53220000Y-155190000D03*
X58720000Y-155190000D03*
X53220000Y-155690000D03*
X58720000Y-155690000D03*
G04 #@! TD*
G04 #@! TO.C,J1*
X168220000Y-58690000D03*
X173720000Y-58690000D03*
X168220000Y-59190000D03*
X173720000Y-59190000D03*
X168220000Y-59690000D03*
X173720000Y-59690000D03*
X168220000Y-60190000D03*
X173720000Y-60190000D03*
X168220000Y-60690000D03*
X173720000Y-60690000D03*
G04 #@! TD*
D12*
G04 #@! TO.C,R21*
X136930000Y-144180000D03*
X136930000Y-145940000D03*
G04 #@! TD*
G04 #@! TO.C,R21*
X21930000Y-144180000D03*
X21930000Y-145940000D03*
G04 #@! TD*
G04 #@! TO.C,R21*
X136930000Y-49180000D03*
X136930000Y-50940000D03*
G04 #@! TD*
G04 #@! TO.C,R8*
X156360000Y-179800000D03*
X156360000Y-178040000D03*
G04 #@! TD*
G04 #@! TO.C,R8*
X41360000Y-179800000D03*
X41360000Y-178040000D03*
G04 #@! TD*
G04 #@! TO.C,R8*
X156360000Y-84800000D03*
X156360000Y-83040000D03*
G04 #@! TD*
D15*
G04 #@! TO.C,R13*
X161640000Y-166090000D03*
X159880000Y-166090000D03*
G04 #@! TD*
G04 #@! TO.C,R13*
X46640000Y-166090000D03*
X44880000Y-166090000D03*
G04 #@! TD*
G04 #@! TO.C,R13*
X161640000Y-71090000D03*
X159880000Y-71090000D03*
G04 #@! TD*
D14*
G04 #@! TO.C,tmp_ref16*
X135600000Y-120950000D03*
G04 #@! TD*
G04 #@! TO.C,tmp_ref16*
X20600000Y-120950000D03*
G04 #@! TD*
G04 #@! TO.C,tmp_ref16*
X135600000Y-25950000D03*
G04 #@! TD*
D35*
G04 #@! TO.C,LED2*
X165480000Y-183160000D03*
X167080000Y-183160000D03*
G04 #@! TD*
G04 #@! TO.C,LED2*
X50480000Y-183160000D03*
X52080000Y-183160000D03*
G04 #@! TD*
G04 #@! TO.C,LED2*
X165480000Y-88160000D03*
X167080000Y-88160000D03*
G04 #@! TD*
D12*
G04 #@! TO.C,R3*
X174970000Y-173170000D03*
X174970000Y-171410000D03*
G04 #@! TD*
G04 #@! TO.C,R3*
X59970000Y-173170000D03*
X59970000Y-171410000D03*
G04 #@! TD*
G04 #@! TO.C,R3*
X174970000Y-78170000D03*
X174970000Y-76410000D03*
G04 #@! TD*
D14*
G04 #@! TO.C,tmp_ref16*
X217300000Y-116150000D03*
G04 #@! TD*
G04 #@! TO.C,tmp_ref16*
X102250000Y-116000000D03*
G04 #@! TD*
G04 #@! TO.C,tmp_ref16*
X217250000Y-21100000D03*
G04 #@! TD*
D15*
G04 #@! TO.C,R9*
X164850000Y-174000000D03*
X166610000Y-174000000D03*
G04 #@! TD*
G04 #@! TO.C,R9*
X49850000Y-174000000D03*
X51610000Y-174000000D03*
G04 #@! TD*
G04 #@! TO.C,R9*
X164850000Y-79000000D03*
X166610000Y-79000000D03*
G04 #@! TD*
G04 #@! TO.C,R10*
X166560000Y-176250000D03*
X164800000Y-176250000D03*
G04 #@! TD*
G04 #@! TO.C,R10*
X51560000Y-176250000D03*
X49800000Y-176250000D03*
G04 #@! TD*
G04 #@! TO.C,R10*
X166560000Y-81250000D03*
X164800000Y-81250000D03*
G04 #@! TD*
G04 #@! TO.C,R12*
X163610000Y-183170000D03*
X161850000Y-183170000D03*
G04 #@! TD*
G04 #@! TO.C,R12*
X48610000Y-183170000D03*
X46850000Y-183170000D03*
G04 #@! TD*
G04 #@! TO.C,R12*
X163610000Y-88170000D03*
X161850000Y-88170000D03*
G04 #@! TD*
D35*
G04 #@! TO.C,LED1*
X167050000Y-185300000D03*
X165450000Y-185300000D03*
G04 #@! TD*
G04 #@! TO.C,LED1*
X52050000Y-185300000D03*
X50450000Y-185300000D03*
G04 #@! TD*
G04 #@! TO.C,LED1*
X167050000Y-90300000D03*
X165450000Y-90300000D03*
G04 #@! TD*
D28*
G04 #@! TO.C,REF\002A\002A*
X134200000Y-125200000D03*
G04 #@! TD*
G04 #@! TO.C,REF\002A\002A*
X19200000Y-125200000D03*
G04 #@! TD*
G04 #@! TO.C,REF\002A\002A*
X134200000Y-30200000D03*
G04 #@! TD*
D15*
G04 #@! TO.C,R11*
X161820000Y-185260000D03*
X163580000Y-185260000D03*
G04 #@! TD*
G04 #@! TO.C,R11*
X46820000Y-185260000D03*
X48580000Y-185260000D03*
G04 #@! TD*
G04 #@! TO.C,R11*
X161820000Y-90260000D03*
X163580000Y-90260000D03*
G04 #@! TD*
D12*
G04 #@! TO.C,R17*
X154910000Y-150040000D03*
X154910000Y-148280000D03*
G04 #@! TD*
G04 #@! TO.C,R17*
X39910000Y-150040000D03*
X39910000Y-148280000D03*
G04 #@! TD*
G04 #@! TO.C,R17*
X154910000Y-55040000D03*
X154910000Y-53280000D03*
G04 #@! TD*
D15*
G04 #@! TO.C,C10*
X135690000Y-150090000D03*
X133930000Y-150090000D03*
G04 #@! TD*
G04 #@! TO.C,C10*
X20690000Y-150090000D03*
X18930000Y-150090000D03*
G04 #@! TD*
G04 #@! TO.C,C10*
X135690000Y-55090000D03*
X133930000Y-55090000D03*
G04 #@! TD*
D36*
G04 #@! TO.C,U6*
X224810000Y-163859800D03*
X224810000Y-154360200D03*
X228157720Y-162457720D03*
X221462280Y-162457720D03*
X228157720Y-155762280D03*
X221462280Y-155762280D03*
G04 #@! TD*
G04 #@! TO.C,U6*
X109810000Y-163859800D03*
X109810000Y-154360200D03*
X113157720Y-162457720D03*
X106462280Y-162457720D03*
X113157720Y-155762280D03*
X106462280Y-155762280D03*
G04 #@! TD*
G04 #@! TO.C,U6*
X224810000Y-68859800D03*
X224810000Y-59360200D03*
X228157720Y-67457720D03*
X221462280Y-67457720D03*
X228157720Y-60762280D03*
X221462280Y-60762280D03*
G04 #@! TD*
D21*
G04 #@! TO.C,CONN_BATT1*
X161990000Y-120350000D03*
D20*
X161990000Y-122890000D03*
G04 #@! TD*
D21*
G04 #@! TO.C,CONN_BATT1*
X46990000Y-120350000D03*
D20*
X46990000Y-122890000D03*
G04 #@! TD*
D21*
G04 #@! TO.C,CONN_BATT1*
X161990000Y-25350000D03*
D20*
X161990000Y-27890000D03*
G04 #@! TD*
D11*
G04 #@! TO.C,SW_LEFT1*
X154910000Y-140220000D03*
X146810000Y-140220000D03*
X146860000Y-135720000D03*
X154910000Y-135720000D03*
G04 #@! TD*
G04 #@! TO.C,SW_LEFT1*
X39910000Y-140220000D03*
X31810000Y-140220000D03*
X31860000Y-135720000D03*
X39910000Y-135720000D03*
G04 #@! TD*
G04 #@! TO.C,SW_LEFT1*
X154910000Y-45220000D03*
X146810000Y-45220000D03*
X146860000Y-40720000D03*
X154910000Y-40720000D03*
G04 #@! TD*
D35*
G04 #@! TO.C,LED4*
X185060000Y-159790000D03*
X186660000Y-159790000D03*
G04 #@! TD*
G04 #@! TO.C,LED4*
X70060000Y-159790000D03*
X71660000Y-159790000D03*
G04 #@! TD*
G04 #@! TO.C,LED4*
X185060000Y-64790000D03*
X186660000Y-64790000D03*
G04 #@! TD*
D15*
G04 #@! TO.C,R6*
X159980000Y-183180000D03*
X158220000Y-183180000D03*
G04 #@! TD*
G04 #@! TO.C,R6*
X44980000Y-183180000D03*
X43220000Y-183180000D03*
G04 #@! TD*
G04 #@! TO.C,R6*
X159980000Y-88180000D03*
X158220000Y-88180000D03*
G04 #@! TD*
D12*
G04 #@! TO.C,R19*
X164480000Y-170880000D03*
X164480000Y-169120000D03*
G04 #@! TD*
G04 #@! TO.C,R19*
X49480000Y-170880000D03*
X49480000Y-169120000D03*
G04 #@! TD*
G04 #@! TO.C,R19*
X164480000Y-75880000D03*
X164480000Y-74120000D03*
G04 #@! TD*
D15*
G04 #@! TO.C,R7*
X163740000Y-187480000D03*
X165500000Y-187480000D03*
G04 #@! TD*
G04 #@! TO.C,R7*
X48740000Y-187480000D03*
X50500000Y-187480000D03*
G04 #@! TD*
G04 #@! TO.C,R7*
X163740000Y-92480000D03*
X165500000Y-92480000D03*
G04 #@! TD*
D12*
G04 #@! TO.C,R22*
X159570000Y-142030000D03*
X159570000Y-140270000D03*
G04 #@! TD*
G04 #@! TO.C,R22*
X44570000Y-142030000D03*
X44570000Y-140270000D03*
G04 #@! TD*
G04 #@! TO.C,R22*
X159570000Y-47030000D03*
X159570000Y-45270000D03*
G04 #@! TD*
D37*
G04 #@! TO.C,U1*
X185840000Y-185190000D03*
D38*
X194540000Y-192890000D03*
X194540000Y-191620000D03*
X194540000Y-190350000D03*
X194540000Y-189080000D03*
X194540000Y-187810000D03*
X194540000Y-186540000D03*
X194540000Y-185270000D03*
X194540000Y-184000000D03*
X194540000Y-182730000D03*
X194540000Y-181460000D03*
X194540000Y-180190000D03*
X194540000Y-178920000D03*
X194540000Y-177650000D03*
X194540000Y-176380000D03*
D39*
X191255000Y-174890000D03*
X189985000Y-174890000D03*
X188715000Y-174890000D03*
X187445000Y-174890000D03*
X186175000Y-174890000D03*
X184905000Y-174890000D03*
X183635000Y-174890000D03*
X182365000Y-174890000D03*
X181095000Y-174890000D03*
X179825000Y-174890000D03*
D38*
X176540000Y-176380000D03*
X176540000Y-177650000D03*
X176540000Y-178920000D03*
X176540000Y-180190000D03*
X176540000Y-181460000D03*
X176540000Y-182730000D03*
X176540000Y-184000000D03*
X176540000Y-185270000D03*
X176540000Y-186540000D03*
X176540000Y-187810000D03*
X176540000Y-189080000D03*
X176540000Y-190350000D03*
X176540000Y-191620000D03*
X176540000Y-192890000D03*
G04 #@! TD*
D37*
G04 #@! TO.C,U1*
X70840000Y-185190000D03*
D38*
X79540000Y-192890000D03*
X79540000Y-191620000D03*
X79540000Y-190350000D03*
X79540000Y-189080000D03*
X79540000Y-187810000D03*
X79540000Y-186540000D03*
X79540000Y-185270000D03*
X79540000Y-184000000D03*
X79540000Y-182730000D03*
X79540000Y-181460000D03*
X79540000Y-180190000D03*
X79540000Y-178920000D03*
X79540000Y-177650000D03*
X79540000Y-176380000D03*
D39*
X76255000Y-174890000D03*
X74985000Y-174890000D03*
X73715000Y-174890000D03*
X72445000Y-174890000D03*
X71175000Y-174890000D03*
X69905000Y-174890000D03*
X68635000Y-174890000D03*
X67365000Y-174890000D03*
X66095000Y-174890000D03*
X64825000Y-174890000D03*
D38*
X61540000Y-176380000D03*
X61540000Y-177650000D03*
X61540000Y-178920000D03*
X61540000Y-180190000D03*
X61540000Y-181460000D03*
X61540000Y-182730000D03*
X61540000Y-184000000D03*
X61540000Y-185270000D03*
X61540000Y-186540000D03*
X61540000Y-187810000D03*
X61540000Y-189080000D03*
X61540000Y-190350000D03*
X61540000Y-191620000D03*
X61540000Y-192890000D03*
G04 #@! TD*
D37*
G04 #@! TO.C,U1*
X185840000Y-90190000D03*
D38*
X194540000Y-97890000D03*
X194540000Y-96620000D03*
X194540000Y-95350000D03*
X194540000Y-94080000D03*
X194540000Y-92810000D03*
X194540000Y-91540000D03*
X194540000Y-90270000D03*
X194540000Y-89000000D03*
X194540000Y-87730000D03*
X194540000Y-86460000D03*
X194540000Y-85190000D03*
X194540000Y-83920000D03*
X194540000Y-82650000D03*
X194540000Y-81380000D03*
D39*
X191255000Y-79890000D03*
X189985000Y-79890000D03*
X188715000Y-79890000D03*
X187445000Y-79890000D03*
X186175000Y-79890000D03*
X184905000Y-79890000D03*
X183635000Y-79890000D03*
X182365000Y-79890000D03*
X181095000Y-79890000D03*
X179825000Y-79890000D03*
D38*
X176540000Y-81380000D03*
X176540000Y-82650000D03*
X176540000Y-83920000D03*
X176540000Y-85190000D03*
X176540000Y-86460000D03*
X176540000Y-87730000D03*
X176540000Y-89000000D03*
X176540000Y-90270000D03*
X176540000Y-91540000D03*
X176540000Y-92810000D03*
X176540000Y-94080000D03*
X176540000Y-95350000D03*
X176540000Y-96620000D03*
X176540000Y-97890000D03*
G04 #@! TD*
D12*
G04 #@! TO.C,C5*
X155170000Y-171290000D03*
X155170000Y-169530000D03*
G04 #@! TD*
G04 #@! TO.C,C5*
X40170000Y-171290000D03*
X40170000Y-169530000D03*
G04 #@! TD*
G04 #@! TO.C,C5*
X155170000Y-76290000D03*
X155170000Y-74530000D03*
G04 #@! TD*
D11*
G04 #@! TO.C,SW_RIGHT1*
X143880000Y-140220000D03*
X135780000Y-140220000D03*
X135830000Y-135720000D03*
X143880000Y-135720000D03*
G04 #@! TD*
G04 #@! TO.C,SW_RIGHT1*
X28880000Y-140220000D03*
X20780000Y-140220000D03*
X20830000Y-135720000D03*
X28880000Y-135720000D03*
G04 #@! TD*
G04 #@! TO.C,SW_RIGHT1*
X143880000Y-45220000D03*
X135780000Y-45220000D03*
X135830000Y-40720000D03*
X143880000Y-40720000D03*
G04 #@! TD*
D18*
G04 #@! TO.C,CP2*
X234910000Y-176010000D03*
X234910000Y-181410000D03*
G04 #@! TD*
G04 #@! TO.C,CP2*
X119910000Y-176010000D03*
X119910000Y-181410000D03*
G04 #@! TD*
G04 #@! TO.C,CP2*
X234910000Y-81010000D03*
X234910000Y-86410000D03*
G04 #@! TD*
D14*
G04 #@! TO.C,tmp_ref16*
X204050000Y-97900000D03*
G04 #@! TD*
G04 #@! TO.C,tmp_ref16*
X229900000Y-184950000D03*
G04 #@! TD*
G04 #@! TO.C,tmp_ref16*
X114900000Y-184950000D03*
G04 #@! TD*
G04 #@! TO.C,tmp_ref16*
X229900000Y-89950000D03*
G04 #@! TD*
D15*
G04 #@! TO.C,R24*
X215610000Y-146680000D03*
X213850000Y-146680000D03*
G04 #@! TD*
G04 #@! TO.C,R24*
X100610000Y-146680000D03*
X98850000Y-146680000D03*
G04 #@! TD*
G04 #@! TO.C,R24*
X215610000Y-51680000D03*
X213850000Y-51680000D03*
G04 #@! TD*
D12*
G04 #@! TO.C,C3*
X202850000Y-175250000D03*
X202850000Y-173490000D03*
G04 #@! TD*
G04 #@! TO.C,C3*
X87850000Y-175250000D03*
X87850000Y-173490000D03*
G04 #@! TD*
G04 #@! TO.C,C3*
X202850000Y-80250000D03*
X202850000Y-78490000D03*
G04 #@! TD*
D15*
G04 #@! TO.C,C19*
X222880000Y-144660000D03*
X224640000Y-144660000D03*
G04 #@! TD*
G04 #@! TO.C,C19*
X107880000Y-144660000D03*
X109640000Y-144660000D03*
G04 #@! TD*
G04 #@! TO.C,C19*
X222880000Y-49660000D03*
X224640000Y-49660000D03*
G04 #@! TD*
D11*
G04 #@! TO.C,SW_UP1*
X141600000Y-128760000D03*
X149700000Y-128760000D03*
X149650000Y-133260000D03*
X141600000Y-133260000D03*
G04 #@! TD*
G04 #@! TO.C,SW_UP1*
X26600000Y-128760000D03*
X34700000Y-128760000D03*
X34650000Y-133260000D03*
X26600000Y-133260000D03*
G04 #@! TD*
G04 #@! TO.C,SW_UP1*
X141600000Y-33760000D03*
X149700000Y-33760000D03*
X149650000Y-38260000D03*
X141600000Y-38260000D03*
G04 #@! TD*
D15*
G04 #@! TO.C,C18*
X215640000Y-144670000D03*
X213880000Y-144670000D03*
G04 #@! TD*
G04 #@! TO.C,C18*
X100640000Y-144670000D03*
X98880000Y-144670000D03*
G04 #@! TD*
G04 #@! TO.C,C18*
X215640000Y-49670000D03*
X213880000Y-49670000D03*
G04 #@! TD*
D12*
G04 #@! TO.C,C2*
X198240000Y-163000000D03*
X198240000Y-161240000D03*
G04 #@! TD*
G04 #@! TO.C,C2*
X83240000Y-163000000D03*
X83240000Y-161240000D03*
G04 #@! TD*
G04 #@! TO.C,C2*
X198240000Y-68000000D03*
X198240000Y-66240000D03*
G04 #@! TD*
G04 #@! TO.C,C16*
X157330000Y-142020000D03*
X157330000Y-140260000D03*
G04 #@! TD*
G04 #@! TO.C,C16*
X42330000Y-142020000D03*
X42330000Y-140260000D03*
G04 #@! TD*
G04 #@! TO.C,C16*
X157330000Y-47020000D03*
X157330000Y-45260000D03*
G04 #@! TD*
G04 #@! TO.C,R4*
X196090000Y-161250000D03*
X196090000Y-163010000D03*
G04 #@! TD*
G04 #@! TO.C,R4*
X81090000Y-161250000D03*
X81090000Y-163010000D03*
G04 #@! TD*
G04 #@! TO.C,R4*
X196090000Y-66250000D03*
X196090000Y-68010000D03*
G04 #@! TD*
D14*
G04 #@! TO.C,tmp_ref16*
X203050000Y-193200000D03*
G04 #@! TD*
G04 #@! TO.C,tmp_ref16*
X88050000Y-193200000D03*
G04 #@! TD*
G04 #@! TO.C,tmp_ref16*
X203050000Y-98200000D03*
G04 #@! TD*
D15*
G04 #@! TO.C,R27*
X152530000Y-143270000D03*
X154290000Y-143270000D03*
G04 #@! TD*
G04 #@! TO.C,R27*
X37530000Y-143270000D03*
X39290000Y-143270000D03*
G04 #@! TD*
G04 #@! TO.C,R27*
X152530000Y-48270000D03*
X154290000Y-48270000D03*
G04 #@! TD*
D40*
G04 #@! TO.C,U5*
X159450000Y-148330000D03*
X159450000Y-150230000D03*
X157250000Y-150230000D03*
X157250000Y-149280000D03*
X157250000Y-148330000D03*
G04 #@! TD*
G04 #@! TO.C,U5*
X44450000Y-148330000D03*
X44450000Y-150230000D03*
X42250000Y-150230000D03*
X42250000Y-149280000D03*
X42250000Y-148330000D03*
G04 #@! TD*
G04 #@! TO.C,U5*
X159450000Y-53330000D03*
X159450000Y-55230000D03*
X157250000Y-55230000D03*
X157250000Y-54280000D03*
X157250000Y-53330000D03*
G04 #@! TD*
D14*
G04 #@! TO.C,tmp_ref16*
X177650000Y-105250000D03*
G04 #@! TD*
G04 #@! TO.C,tmp_ref16*
X62650000Y-105250000D03*
G04 #@! TD*
G04 #@! TO.C,tmp_ref16*
X177650000Y-10250000D03*
G04 #@! TD*
G04 #@! TO.C,tmp_ref16*
X218000000Y-116750000D03*
G04 #@! TD*
G04 #@! TO.C,tmp_ref16*
X103050000Y-116650000D03*
G04 #@! TD*
G04 #@! TO.C,tmp_ref16*
X217950000Y-21750000D03*
G04 #@! TD*
G04 #@! TO.C,tmp_ref16*
X232800000Y-185600000D03*
G04 #@! TD*
G04 #@! TO.C,tmp_ref16*
X117800000Y-185600000D03*
G04 #@! TD*
G04 #@! TO.C,tmp_ref16*
X232800000Y-90600000D03*
G04 #@! TD*
D12*
G04 #@! TO.C,C14*
X152200000Y-130530000D03*
X152200000Y-132290000D03*
G04 #@! TD*
G04 #@! TO.C,C14*
X37200000Y-130530000D03*
X37200000Y-132290000D03*
G04 #@! TD*
G04 #@! TO.C,C14*
X152200000Y-35530000D03*
X152200000Y-37290000D03*
G04 #@! TD*
D41*
G04 #@! TO.C,U8*
X153330000Y-158390000D03*
X154280000Y-160390000D03*
X152380000Y-160390000D03*
G04 #@! TD*
G04 #@! TO.C,U8*
X38330000Y-158390000D03*
X39280000Y-160390000D03*
X37380000Y-160390000D03*
G04 #@! TD*
G04 #@! TO.C,U8*
X153330000Y-63390000D03*
X154280000Y-65390000D03*
X152380000Y-65390000D03*
G04 #@! TD*
D15*
G04 #@! TO.C,R2*
X183143513Y-159908988D03*
X181383513Y-159908988D03*
G04 #@! TD*
G04 #@! TO.C,R2*
X68143513Y-159908988D03*
X66383513Y-159908988D03*
G04 #@! TD*
G04 #@! TO.C,R2*
X183143513Y-64908988D03*
X181383513Y-64908988D03*
G04 #@! TD*
D28*
G04 #@! TO.C,REF\002A\002A*
X217800000Y-123450000D03*
G04 #@! TD*
G04 #@! TO.C,REF\002A\002A*
X102800000Y-123450000D03*
G04 #@! TD*
G04 #@! TO.C,REF\002A\002A*
X217800000Y-28450000D03*
G04 #@! TD*
D14*
G04 #@! TO.C,tmp_ref16*
X29950000Y-76050000D03*
G04 #@! TD*
G04 #@! TO.C,tmp_ref16*
X29450000Y-75000000D03*
G04 #@! TD*
G04 #@! TO.C,tmp_ref16*
X30450000Y-77000000D03*
G04 #@! TD*
G04 #@! TO.C,tmp_ref16*
X90000000Y-97450000D03*
G04 #@! TD*
G04 #@! TO.C,tmp_ref16*
X89000000Y-97850000D03*
G04 #@! TD*
G04 #@! TO.C,tmp_ref16*
X88050000Y-98200000D03*
G04 #@! TD*
G04 #@! TO.C,tmp_ref16*
X114900000Y-89950000D03*
G04 #@! TD*
G04 #@! TO.C,tmp_ref16*
X117800000Y-90600000D03*
G04 #@! TD*
G04 #@! TO.C,tmp_ref16*
X116800000Y-90400000D03*
G04 #@! TD*
G04 #@! TO.C,tmp_ref16*
X115800000Y-90150000D03*
G04 #@! TD*
G04 #@! TO.C,tmp_ref16*
X102900000Y-21750000D03*
G04 #@! TD*
G04 #@! TO.C,tmp_ref16*
X102200000Y-21100000D03*
G04 #@! TD*
G04 #@! TO.C,tmp_ref16*
X101500000Y-20450000D03*
G04 #@! TD*
G04 #@! TO.C,tmp_ref16*
X103650000Y-22450000D03*
G04 #@! TD*
G04 #@! TO.C,tmp_ref16*
X60700000Y-10700000D03*
G04 #@! TD*
G04 #@! TO.C,tmp_ref16*
X62650000Y-10250000D03*
G04 #@! TD*
G04 #@! TO.C,tmp_ref16*
X59850000Y-10900000D03*
G04 #@! TD*
G04 #@! TO.C,tmp_ref16*
X61650000Y-10450000D03*
G04 #@! TD*
G04 #@! TO.C,tmp_ref16*
X21350000Y-26100000D03*
G04 #@! TD*
G04 #@! TO.C,tmp_ref16*
X20600000Y-25950000D03*
G04 #@! TD*
G04 #@! TO.C,tmp_ref16*
X19800000Y-25750000D03*
G04 #@! TD*
D28*
G04 #@! TO.C,REF\002A\002A*
X88300000Y-93600000D03*
G04 #@! TD*
G04 #@! TO.C,REF\002A\002A*
X19200000Y-30200000D03*
G04 #@! TD*
D17*
G04 #@! TO.C,J2*
X62930000Y-74665000D03*
X62930000Y-69615000D03*
X65470000Y-74665000D03*
X65470000Y-69615000D03*
X68010000Y-74665000D03*
X68010000Y-69615000D03*
X70550000Y-74665000D03*
X70550000Y-69615000D03*
X73090000Y-74665000D03*
X73090000Y-69615000D03*
X75630000Y-74665000D03*
X75630000Y-69615000D03*
X78170000Y-74665000D03*
X78170000Y-69615000D03*
G04 #@! TD*
D15*
G04 #@! TO.C,R14*
X56010000Y-68220000D03*
X57770000Y-68220000D03*
G04 #@! TD*
D36*
G04 #@! TO.C,U6*
X106462280Y-60762280D03*
X113157720Y-60762280D03*
X106462280Y-67457720D03*
X113157720Y-67457720D03*
X109810000Y-59360200D03*
X109810000Y-68859800D03*
G04 #@! TD*
D10*
G04 #@! TO.C,SW_A1*
X101900000Y-47060000D03*
X101900000Y-39010000D03*
X97400000Y-38960000D03*
X97400000Y-47060000D03*
G04 #@! TD*
D11*
G04 #@! TO.C,SW_DOWN1*
X34700000Y-47760000D03*
X26650000Y-47760000D03*
X26600000Y-52260000D03*
X34700000Y-52260000D03*
G04 #@! TD*
G04 #@! TO.C,SW_LEFT1*
X39910000Y-40720000D03*
X31860000Y-40720000D03*
X31810000Y-45220000D03*
X39910000Y-45220000D03*
G04 #@! TD*
G04 #@! TO.C,SW_PROG1*
X86400000Y-76460000D03*
X94450000Y-76460000D03*
X94500000Y-71960000D03*
X86400000Y-71960000D03*
G04 #@! TD*
D10*
G04 #@! TO.C,SW_B1*
X110900000Y-47060000D03*
X110900000Y-39010000D03*
X106400000Y-38960000D03*
X106400000Y-47060000D03*
G04 #@! TD*
D11*
G04 #@! TO.C,SW_UP1*
X26600000Y-38260000D03*
X34650000Y-38260000D03*
X34700000Y-33760000D03*
X26600000Y-33760000D03*
G04 #@! TD*
G04 #@! TO.C,SW_RIGHT1*
X28880000Y-40720000D03*
X20830000Y-40720000D03*
X20780000Y-45220000D03*
X28880000Y-45220000D03*
G04 #@! TD*
G04 #@! TO.C,SW_RESET1*
X94470000Y-64880000D03*
X86420000Y-64880000D03*
X86370000Y-69380000D03*
X94470000Y-69380000D03*
G04 #@! TD*
D12*
G04 #@! TO.C,R18*
X106450000Y-74450000D03*
X106450000Y-76210000D03*
G04 #@! TD*
D38*
G04 #@! TO.C,U1*
X61540000Y-97890000D03*
X61540000Y-96620000D03*
X61540000Y-95350000D03*
X61540000Y-94080000D03*
X61540000Y-92810000D03*
X61540000Y-91540000D03*
X61540000Y-90270000D03*
X61540000Y-89000000D03*
X61540000Y-87730000D03*
X61540000Y-86460000D03*
X61540000Y-85190000D03*
X61540000Y-83920000D03*
X61540000Y-82650000D03*
X61540000Y-81380000D03*
D39*
X64825000Y-79890000D03*
X66095000Y-79890000D03*
X67365000Y-79890000D03*
X68635000Y-79890000D03*
X69905000Y-79890000D03*
X71175000Y-79890000D03*
X72445000Y-79890000D03*
X73715000Y-79890000D03*
X74985000Y-79890000D03*
X76255000Y-79890000D03*
D38*
X79540000Y-81380000D03*
X79540000Y-82650000D03*
X79540000Y-83920000D03*
X79540000Y-85190000D03*
X79540000Y-86460000D03*
X79540000Y-87730000D03*
X79540000Y-89000000D03*
X79540000Y-90270000D03*
X79540000Y-91540000D03*
X79540000Y-92810000D03*
X79540000Y-94080000D03*
X79540000Y-95350000D03*
X79540000Y-96620000D03*
X79540000Y-97890000D03*
D37*
X70840000Y-90190000D03*
G04 #@! TD*
D27*
G04 #@! TO.C,Q1*
X113120000Y-78120000D03*
X113120000Y-76220000D03*
X111120000Y-77170000D03*
G04 #@! TD*
D13*
G04 #@! TO.C,D2*
X46275000Y-58670000D03*
X42465000Y-58670000D03*
G04 #@! TD*
D12*
G04 #@! TO.C,C5*
X40170000Y-74530000D03*
X40170000Y-76290000D03*
G04 #@! TD*
D15*
G04 #@! TO.C,C19*
X109640000Y-49660000D03*
X107880000Y-49660000D03*
G04 #@! TD*
D12*
G04 #@! TO.C,C15*
X24200000Y-50890000D03*
X24200000Y-49130000D03*
G04 #@! TD*
D15*
G04 #@! TO.C,R9*
X51610000Y-79000000D03*
X49850000Y-79000000D03*
G04 #@! TD*
D12*
G04 #@! TO.C,R8*
X41360000Y-83040000D03*
X41360000Y-84800000D03*
G04 #@! TD*
D40*
G04 #@! TO.C,U5*
X42250000Y-53330000D03*
X42250000Y-54280000D03*
X42250000Y-55230000D03*
X44450000Y-55230000D03*
X44450000Y-53330000D03*
G04 #@! TD*
D12*
G04 #@! TO.C,C3*
X87850000Y-78490000D03*
X87850000Y-80250000D03*
G04 #@! TD*
D34*
G04 #@! TO.C,J1*
X58720000Y-60690000D03*
X53220000Y-60690000D03*
X58720000Y-60190000D03*
X53220000Y-60190000D03*
X58720000Y-59690000D03*
X53220000Y-59690000D03*
X58720000Y-59190000D03*
X53220000Y-59190000D03*
X58720000Y-58690000D03*
X53220000Y-58690000D03*
G04 #@! TD*
D12*
G04 #@! TO.C,C17*
X16040000Y-43780000D03*
X16040000Y-42020000D03*
G04 #@! TD*
G04 #@! TO.C,R17*
X39910000Y-53280000D03*
X39910000Y-55040000D03*
G04 #@! TD*
D15*
G04 #@! TO.C,R11*
X48580000Y-90260000D03*
X46820000Y-90260000D03*
G04 #@! TD*
G04 #@! TO.C,R24*
X98850000Y-51680000D03*
X100610000Y-51680000D03*
G04 #@! TD*
G04 #@! TO.C,M2*
X42280000Y-50990000D03*
X44040000Y-50990000D03*
G04 #@! TD*
D41*
G04 #@! TO.C,U8*
X37380000Y-65390000D03*
X39280000Y-65390000D03*
X38330000Y-63390000D03*
G04 #@! TD*
D12*
G04 #@! TO.C,R5*
X85710000Y-80230000D03*
X85710000Y-78470000D03*
G04 #@! TD*
G04 #@! TO.C,R21*
X21930000Y-50940000D03*
X21930000Y-49180000D03*
G04 #@! TD*
G04 #@! TO.C,R23*
X17980000Y-43760000D03*
X17980000Y-42000000D03*
G04 #@! TD*
D35*
G04 #@! TO.C,LED2*
X52080000Y-88160000D03*
X50480000Y-88160000D03*
G04 #@! TD*
D12*
G04 #@! TO.C,C1*
X82980000Y-95800000D03*
X82980000Y-97560000D03*
G04 #@! TD*
D21*
G04 #@! TO.C,J3*
X30160000Y-60490000D03*
D20*
X30160000Y-63030000D03*
G04 #@! TD*
D15*
G04 #@! TO.C,R25*
X109630000Y-51790000D03*
X107870000Y-51790000D03*
G04 #@! TD*
G04 #@! TO.C,R13*
X44880000Y-71090000D03*
X46640000Y-71090000D03*
G04 #@! TD*
D12*
G04 #@! TO.C,C14*
X37200000Y-37290000D03*
X37200000Y-35530000D03*
G04 #@! TD*
G04 #@! TO.C,R16*
X39900000Y-56930000D03*
X39900000Y-58690000D03*
G04 #@! TD*
G04 #@! TO.C,R19*
X49480000Y-74120000D03*
X49480000Y-75880000D03*
G04 #@! TD*
D15*
G04 #@! TO.C,C4*
X44120000Y-78230000D03*
X45880000Y-78230000D03*
G04 #@! TD*
G04 #@! TO.C,R12*
X46850000Y-88170000D03*
X48610000Y-88170000D03*
G04 #@! TD*
D35*
G04 #@! TO.C,LED1*
X50450000Y-90300000D03*
X52050000Y-90300000D03*
G04 #@! TD*
D15*
G04 #@! TO.C,R7*
X50500000Y-92480000D03*
X48740000Y-92480000D03*
G04 #@! TD*
D12*
G04 #@! TO.C,C16*
X42330000Y-45260000D03*
X42330000Y-47020000D03*
G04 #@! TD*
G04 #@! TO.C,R22*
X44570000Y-45270000D03*
X44570000Y-47030000D03*
G04 #@! TD*
G04 #@! TO.C,C7*
X42360000Y-72410000D03*
X42360000Y-74170000D03*
G04 #@! TD*
D27*
G04 #@! TO.C,Q2*
X55330000Y-78980000D03*
X53330000Y-79930000D03*
X53330000Y-78030000D03*
G04 #@! TD*
D15*
G04 #@! TO.C,R6*
X43220000Y-88180000D03*
X44980000Y-88180000D03*
G04 #@! TD*
D20*
G04 #@! TO.C,CONN_BATT1*
X46990000Y-27890000D03*
D21*
X46990000Y-25350000D03*
G04 #@! TD*
D15*
G04 #@! TO.C,C18*
X98880000Y-49670000D03*
X100640000Y-49670000D03*
G04 #@! TD*
G04 #@! TO.C,R10*
X49800000Y-81250000D03*
X51560000Y-81250000D03*
G04 #@! TD*
D12*
G04 #@! TO.C,R3*
X59970000Y-76410000D03*
X59970000Y-78170000D03*
G04 #@! TD*
G04 #@! TO.C,C6*
X39330000Y-84800000D03*
X39330000Y-83040000D03*
G04 #@! TD*
D26*
G04 #@! TO.C,J4*
X20895044Y-58802819D03*
D23*
G36*
X20294290Y-59585008D02*
X20664373Y-57843905D01*
X21495798Y-58020630D01*
X21125715Y-59761733D01*
X20294290Y-59585008D01*
X20294290Y-59585008D01*
G37*
D26*
X21530840Y-58937962D03*
D23*
G36*
X20930086Y-59720151D02*
X21300169Y-57979048D01*
X22131594Y-58155773D01*
X21761511Y-59896876D01*
X20930086Y-59720151D01*
X20930086Y-59720151D01*
G37*
D26*
X22166636Y-59073105D03*
D23*
G36*
X21565882Y-59855294D02*
X21935965Y-58114191D01*
X22767390Y-58290916D01*
X22397307Y-60032019D01*
X21565882Y-59855294D01*
X21565882Y-59855294D01*
G37*
D26*
X22802432Y-59208247D03*
D23*
G36*
X22201678Y-59990436D02*
X22571761Y-58249333D01*
X23403186Y-58426058D01*
X23033103Y-60167161D01*
X22201678Y-59990436D01*
X22201678Y-59990436D01*
G37*
D26*
X23438228Y-59343390D03*
D23*
G36*
X22837474Y-60125579D02*
X23207557Y-58384476D01*
X24038982Y-58561201D01*
X23668899Y-60302304D01*
X22837474Y-60125579D01*
X22837474Y-60125579D01*
G37*
D25*
X19683099Y-58913255D03*
D23*
G36*
X18506196Y-59941022D02*
X19025975Y-57495653D01*
X20860002Y-57885488D01*
X20340223Y-60330857D01*
X18506196Y-59941022D01*
X18506196Y-59941022D01*
G37*
D25*
X24500476Y-59937220D03*
D23*
G36*
X23323573Y-60964987D02*
X23843352Y-58519618D01*
X25677379Y-58909453D01*
X25157600Y-61354822D01*
X23323573Y-60964987D01*
X23323573Y-60964987D01*
G37*
D24*
X18767181Y-61069954D03*
D23*
G36*
X17170903Y-61906346D02*
X17649100Y-59656607D01*
X20363459Y-60233562D01*
X19885262Y-62483301D01*
X17170903Y-61906346D01*
X17170903Y-61906346D01*
G37*
D24*
X24460000Y-62280000D03*
D23*
G36*
X22863722Y-63116392D02*
X23341919Y-60866653D01*
X26056278Y-61443608D01*
X25578081Y-63693347D01*
X22863722Y-63116392D01*
X22863722Y-63116392D01*
G37*
D22*
X20791947Y-61500331D03*
D23*
G36*
X19782557Y-62461470D02*
X20260754Y-60211731D01*
X21801337Y-60539192D01*
X21323140Y-62788931D01*
X19782557Y-62461470D01*
X19782557Y-62461470D01*
G37*
D22*
X22435235Y-61849623D03*
D23*
G36*
X21425845Y-62810762D02*
X21904042Y-60561023D01*
X23444625Y-60888484D01*
X22966428Y-63138223D01*
X21425845Y-62810762D01*
X21425845Y-62810762D01*
G37*
G04 #@! TD*
D19*
G04 #@! TO.C,LED3*
X49250000Y-71370000D03*
X49250000Y-69770000D03*
G04 #@! TD*
D12*
G04 #@! TO.C,R1*
X36410000Y-69130000D03*
X36410000Y-67370000D03*
G04 #@! TD*
G04 #@! TO.C,C11*
X32150000Y-67340000D03*
X32150000Y-69100000D03*
G04 #@! TD*
D15*
G04 #@! TO.C,C9*
X54340000Y-74350000D03*
X52580000Y-74350000D03*
G04 #@! TD*
D12*
G04 #@! TO.C,R20*
X39360000Y-37290000D03*
X39360000Y-35530000D03*
G04 #@! TD*
G04 #@! TO.C,C2*
X83240000Y-66240000D03*
X83240000Y-68000000D03*
G04 #@! TD*
D30*
G04 #@! TO.C,U3*
X52810000Y-65410000D03*
D29*
X51860000Y-66760000D03*
X53760000Y-66760000D03*
X52810000Y-66760000D03*
X51860000Y-64060000D03*
X53760000Y-64060000D03*
X52810000Y-64060000D03*
G04 #@! TD*
D16*
G04 #@! TO.C,U7*
X47080000Y-73240000D03*
X46130000Y-73240000D03*
X45180000Y-73240000D03*
X45180000Y-75440000D03*
X47080000Y-75440000D03*
G04 #@! TD*
D12*
G04 #@! TO.C,R4*
X81090000Y-68010000D03*
X81090000Y-66250000D03*
G04 #@! TD*
D33*
G04 #@! TO.C,U2*
X44020000Y-82590000D03*
X44020000Y-83090000D03*
X44020000Y-83590000D03*
X44020000Y-84090000D03*
X44020000Y-84590000D03*
X44020000Y-85090000D03*
D32*
X44720000Y-85790000D03*
X45220000Y-85790000D03*
X45720000Y-85790000D03*
X46220000Y-85790000D03*
X46720000Y-85790000D03*
X47220000Y-85790000D03*
D33*
X47920000Y-85090000D03*
X47920000Y-84590000D03*
X47920000Y-84090000D03*
X47920000Y-83590000D03*
X47920000Y-83090000D03*
X47920000Y-82590000D03*
D32*
X47220000Y-81890000D03*
X46720000Y-81890000D03*
X46220000Y-81890000D03*
X45720000Y-81890000D03*
X45220000Y-81890000D03*
X44720000Y-81890000D03*
D31*
X45970000Y-83840000D03*
G04 #@! TD*
D15*
G04 #@! TO.C,C13*
X43710000Y-61540000D03*
X41950000Y-61540000D03*
G04 #@! TD*
G04 #@! TO.C,C10*
X18930000Y-55090000D03*
X20690000Y-55090000D03*
G04 #@! TD*
D27*
G04 #@! TO.C,Q3*
X55310000Y-83550000D03*
X55310000Y-81650000D03*
X53310000Y-82600000D03*
G04 #@! TD*
D18*
G04 #@! TO.C,CP1*
X41360000Y-32490000D03*
X41360000Y-27090000D03*
G04 #@! TD*
D35*
G04 #@! TO.C,LED4*
X71660000Y-64790000D03*
X70060000Y-64790000D03*
G04 #@! TD*
D15*
G04 #@! TO.C,R2*
X66383513Y-64908988D03*
X68143513Y-64908988D03*
G04 #@! TD*
D18*
G04 #@! TO.C,CP2*
X119910000Y-86410000D03*
X119910000Y-81010000D03*
G04 #@! TD*
D15*
G04 #@! TO.C,R26*
X39300000Y-50550000D03*
X37540000Y-50550000D03*
G04 #@! TD*
G04 #@! TO.C,R27*
X39290000Y-48270000D03*
X37530000Y-48270000D03*
G04 #@! TD*
D28*
G04 #@! TO.C,REF\002A\002A*
X102800000Y-28450000D03*
G04 #@! TD*
D14*
G04 #@! TO.C,tmp_ref16*
X19000000Y-25550000D03*
G04 #@! TD*
M02*
