G04 #@! TF.GenerationSoftware,KiCad,Pcbnew,(5.0.0-rc2-100-g6d77e594b)*
G04 #@! TF.CreationDate,2018-09-14T16:14:06+02:00*
G04 #@! TF.ProjectId,BruCON_0x0a,427275434F4E5F307830612E6B696361,rev?*
G04 #@! TF.SameCoordinates,Original*
G04 #@! TF.FileFunction,Profile,NP*
%FSLAX46Y46*%
G04 Gerber Fmt 4.6, Leading zero omitted, Abs format (unit mm)*
G04 Created by KiCad (PCBNEW (5.0.0-rc2-100-g6d77e594b)) date Fri Sep 14 16:14:06 2018*
%MOMM*%
%LPD*%
G01*
G04 APERTURE LIST*
%ADD10C,0.200000*%
G04 APERTURE END LIST*
D10*
X61850000Y-103100000D02*
X59100000Y-101050000D01*
X168550000Y-103250000D02*
X174050000Y-104100000D01*
X137650000Y-22100000D02*
X152150000Y-11950000D01*
X4800000Y-106450000D02*
X4000000Y-106900000D01*
X18550000Y-117950000D02*
X4800000Y-106450000D01*
X18500000Y-120450000D02*
X18550000Y-117950000D01*
X24000000Y-85850000D02*
X22250000Y-80700000D01*
X43350000Y-102200000D02*
X24000000Y-85850000D01*
X59050000Y-101050000D02*
X43350000Y-102200000D01*
X63135888Y-105180148D02*
X61850000Y-103100000D01*
X59050000Y-103700000D02*
X59376046Y-106075747D01*
X43500000Y-107250000D02*
X59050000Y-103700000D01*
X22300000Y-117800000D02*
X43500000Y-107250000D01*
X21800000Y-121200000D02*
X22300000Y-117800000D01*
X24950000Y-75950000D02*
X29192280Y-74462186D01*
X30750000Y-77600000D02*
X22250000Y-80700000D01*
X4000000Y-74800000D02*
X24950000Y-75950000D01*
X29192796Y-169462186D02*
X4000000Y-169550000D01*
X25300000Y-176200000D02*
X30750000Y-172600000D01*
X38350000Y-200500000D02*
X25300000Y-176200000D01*
X88950000Y-199150000D02*
X87650000Y-193350000D01*
X87100000Y-200500000D02*
X88950000Y-199150000D01*
X93100000Y-197050000D02*
X90450000Y-192150000D01*
X113000000Y-193900000D02*
X93100000Y-197050000D01*
X114450000Y-184850000D02*
X113000000Y-193900000D01*
X118900000Y-193100000D02*
X118300000Y-185650000D01*
X147350000Y-200500000D02*
X203150000Y-200500000D01*
X137600000Y-193100000D02*
X118850000Y-193100000D01*
X134000000Y-173100000D02*
X137600000Y-193100000D01*
X144200000Y-169450000D02*
X134000000Y-173100000D01*
X142250000Y-173650000D02*
X147350000Y-200500000D01*
X145750000Y-172600000D02*
X142250000Y-173650000D01*
X204250000Y-198050000D02*
X203150000Y-200500000D01*
X202650000Y-193350000D02*
X204250000Y-198050000D01*
X207300000Y-197000000D02*
X205457510Y-192161210D01*
X210200000Y-196600000D02*
X207300000Y-197000000D01*
X224900000Y-193400000D02*
X210200000Y-196600000D01*
X229450000Y-184850000D02*
X224900000Y-193400000D01*
X232350000Y-191200000D02*
X233300000Y-185600000D01*
X234150000Y-200500000D02*
X232350000Y-191200000D01*
X221150000Y-115400000D02*
X251000000Y-123650000D01*
X219030362Y-117883092D02*
X221150000Y-115400000D01*
X217900000Y-112550000D02*
X216154238Y-115139205D01*
X205550000Y-103300000D02*
X217900000Y-112550000D01*
X202629041Y-98348040D02*
X205550000Y-103300000D01*
X207350000Y-101050000D02*
X205457510Y-97161210D01*
X228300000Y-95300000D02*
X207350000Y-101050000D01*
X229450000Y-89850000D02*
X228300000Y-95300000D01*
X232550000Y-95900000D02*
X233300000Y-90600000D01*
X251000000Y-101900000D02*
X232550000Y-95900000D01*
X222800000Y-19150000D02*
X251000000Y-23000000D01*
X219030362Y-22883093D02*
X222800000Y-19150000D01*
X219300000Y-16850000D02*
X216154238Y-20139205D01*
X214050000Y-4500000D02*
X219300000Y-16850000D01*
X177350000Y-6100000D02*
X178135880Y-10180148D01*
X179100000Y-4500000D02*
X177350000Y-6100000D01*
X172950000Y-6550000D02*
X174376046Y-11075747D01*
X152150000Y-11950000D02*
X172950000Y-6550000D01*
X136800000Y-26200000D02*
X137650000Y-22100000D01*
X108500000Y-18500000D02*
X104030362Y-22883093D01*
X121300000Y-18150000D02*
X108500000Y-18500000D01*
X134800000Y-19350000D02*
X121300000Y-18150000D01*
X133550000Y-25400000D02*
X134800000Y-19350000D01*
X105400000Y-13400000D02*
X101154238Y-20139205D01*
X99200000Y-4500000D02*
X105400000Y-13400000D01*
X62350000Y-7900000D02*
X63135880Y-10180148D01*
X63800000Y-4500000D02*
X62350000Y-7900000D01*
X56200000Y-4500000D02*
X59376046Y-11075747D01*
X21800000Y-26200000D02*
X28400000Y-4500000D01*
X19350000Y-21600000D02*
X4000000Y-17850000D01*
X18550000Y-25400000D02*
X19350000Y-21600000D01*
X117600000Y-95450000D02*
X118300000Y-90650000D01*
X130550000Y-97500000D02*
X117600000Y-95450000D01*
X137300000Y-95400000D02*
X130550000Y-97500000D01*
X132650000Y-80550000D02*
X137300000Y-95400000D01*
X144200000Y-74450000D02*
X132650000Y-80550000D01*
X143150000Y-79250000D02*
X145750000Y-77600000D01*
X146100000Y-88800000D02*
X143150000Y-79250000D01*
X159950000Y-98550000D02*
X146100000Y-88800000D01*
X177600000Y-103100000D02*
X159950000Y-98550000D01*
X178150000Y-105200000D02*
X177600000Y-103100000D01*
X174050000Y-104100000D02*
X174400000Y-106050000D01*
X138550000Y-116150000D02*
X168550000Y-103250000D01*
X136800000Y-121200000D02*
X138550000Y-116150000D01*
X133950000Y-115850000D02*
X133550000Y-120400000D01*
X133650000Y-114950000D02*
X133950000Y-115850000D01*
X107850000Y-113550000D02*
X133650000Y-114950000D01*
X104050000Y-117900000D02*
X107850000Y-113550000D01*
X103100000Y-112200000D02*
X101150000Y-115150000D01*
X89150000Y-101800000D02*
X103100000Y-112200000D01*
X87650000Y-98350000D02*
X89150000Y-101800000D01*
X92800000Y-101900000D02*
X90450000Y-97150000D01*
X113850000Y-92750000D02*
X92800000Y-101900000D01*
X114450000Y-89850000D02*
X113850000Y-92750000D01*
X4000000Y-106900000D02*
X4000000Y-169550000D01*
X38350000Y-200500000D02*
X87100000Y-200500000D01*
X234150000Y-200500000D02*
X251000000Y-200500000D01*
X251000000Y-123650000D02*
X251000000Y-200500000D01*
X251000000Y-23000000D02*
X251000000Y-101900000D01*
X179100000Y-4500000D02*
X214050000Y-4500000D01*
X63800000Y-4500000D02*
X99200000Y-4500000D01*
X127650000Y-135010000D02*
X120650000Y-120010000D01*
X12650000Y-135010000D02*
X5650000Y-120010000D01*
X127650000Y-40010000D02*
X120650000Y-25010000D01*
X202629041Y-193348040D02*
G75*
G02X145750000Y-172600000I-16041683J44361669D01*
G01*
X87629041Y-193348040D02*
G75*
G02X30750000Y-172600000I-16041683J44361669D01*
G01*
X202629041Y-98348040D02*
G75*
G02X145750000Y-77600000I-16041683J44361669D01*
G01*
X120650000Y-145010000D02*
X127650000Y-135010000D01*
X5650000Y-145010000D02*
X12650000Y-135010000D01*
X120650000Y-50010000D02*
X127650000Y-40010000D01*
X131650000Y-149010000D02*
X121650000Y-147010000D01*
X16650000Y-149010000D02*
X6650000Y-147010000D01*
X131650000Y-54010000D02*
X121650000Y-52010000D01*
X136800000Y-121200000D02*
X149650000Y-124010000D01*
X21800000Y-121200000D02*
X34650000Y-124010000D01*
X136800000Y-26200000D02*
X149650000Y-29010000D01*
X247650000Y-161010000D02*
X237650000Y-158510000D01*
X132650000Y-161010000D02*
X122650000Y-158510000D01*
X247650000Y-66010000D02*
X237650000Y-63510000D01*
X219030362Y-117883093D02*
G75*
G02X231480000Y-149490000I-32500362J-31056907D01*
G01*
X104030362Y-117883093D02*
G75*
G02X116480000Y-149490000I-32500362J-31056907D01*
G01*
X219030362Y-22883093D02*
G75*
G02X231480000Y-54490000I-32500362J-31056907D01*
G01*
X202670000Y-107050000D02*
X194420000Y-105140000D01*
X87670000Y-107050000D02*
X79420000Y-105140000D01*
X202670000Y-12050000D02*
X194420000Y-10140000D01*
X247150000Y-188510000D02*
X247650000Y-188510000D01*
X132150000Y-188510000D02*
X132650000Y-188510000D01*
X247150000Y-93510000D02*
X247650000Y-93510000D01*
X237650000Y-158510000D02*
X237650000Y-151010000D01*
X122650000Y-158510000D02*
X122650000Y-151010000D01*
X237650000Y-63510000D02*
X237650000Y-56010000D01*
X247650000Y-188510000D02*
X248150000Y-188010000D01*
X132650000Y-188510000D02*
X133150000Y-188010000D01*
X247650000Y-93510000D02*
X248150000Y-93010000D01*
X206400000Y-108610000D02*
G75*
G03X204480000Y-105010000I-2760000J840000D01*
G01*
X91400000Y-108610000D02*
G75*
G03X89480000Y-105010000I-2760000J840000D01*
G01*
X206400000Y-13610000D02*
G75*
G03X204480000Y-10010000I-2760000J840000D01*
G01*
X248150000Y-161510000D02*
X247650000Y-161010000D01*
X133150000Y-161510000D02*
X132650000Y-161010000D01*
X248150000Y-66510000D02*
X247650000Y-66010000D01*
X120650000Y-119010000D02*
X121650000Y-118010000D01*
X5650000Y-119010000D02*
X6650000Y-118010000D01*
X120650000Y-24010000D02*
X121650000Y-23010000D01*
X174376046Y-106075747D02*
G75*
G03X149650000Y-124010000I12273954J-42934253D01*
G01*
X59376046Y-106075747D02*
G75*
G03X34650000Y-124010000I12273954J-42934253D01*
G01*
X174376046Y-11075747D02*
G75*
G03X149650000Y-29010000I12273954J-42934253D01*
G01*
X248150000Y-162510000D02*
X248150000Y-162010000D01*
X133150000Y-162510000D02*
X133150000Y-162010000D01*
X248150000Y-67510000D02*
X248150000Y-67010000D01*
X194390000Y-105130000D02*
G75*
G03X193450000Y-108150000I-470000J-1510000D01*
G01*
X79390000Y-105130000D02*
G75*
G03X78450000Y-108150000I-470000J-1510000D01*
G01*
X194390000Y-10130000D02*
G75*
G03X193450000Y-13150000I-470000J-1510000D01*
G01*
X131650000Y-157010000D02*
X131650000Y-149010000D01*
X16650000Y-157010000D02*
X16650000Y-149010000D01*
X131650000Y-62010000D02*
X131650000Y-54010000D01*
X220650000Y-183010000D02*
X229450000Y-184850000D01*
X105650000Y-183010000D02*
X114450000Y-184850000D01*
X220650000Y-88010000D02*
X229450000Y-89850000D01*
X144192796Y-169462186D02*
G75*
G02X140587359Y-159000000I42394562J20462185D01*
G01*
X29192796Y-169462186D02*
G75*
G02X25587359Y-159000000I42394562J20462185D01*
G01*
X144192796Y-74462186D02*
G75*
G02X140587359Y-64000000I42394562J20462185D01*
G01*
X216154238Y-115139205D02*
G75*
G03X206400000Y-108610000I-29674238J-33780795D01*
G01*
X101154238Y-115139205D02*
G75*
G03X91400000Y-108610000I-29674238J-33780795D01*
G01*
X216154238Y-20139205D02*
G75*
G03X206400000Y-13610000I-29674238J-33780795D01*
G01*
X193364731Y-102527379D02*
G75*
G03X189770000Y-104470000I-834731J-2752621D01*
G01*
X78364731Y-102527379D02*
G75*
G03X74770000Y-104470000I-834731J-2752621D01*
G01*
X193364731Y-7527379D02*
G75*
G03X189770000Y-9470000I-834731J-2752621D01*
G01*
X202660000Y-107050000D02*
G75*
G02X201720000Y-110070000I-470000J-1510000D01*
G01*
X87660000Y-107050000D02*
G75*
G02X86720000Y-110070000I-470000J-1510000D01*
G01*
X202660000Y-12050000D02*
G75*
G02X201720000Y-15070000I-470000J-1510000D01*
G01*
X122650000Y-118010000D02*
X133532588Y-120428352D01*
X7650000Y-118010000D02*
X18500000Y-120450000D01*
X122650000Y-23010000D02*
X133532588Y-25428352D01*
X178135888Y-105180149D02*
G75*
G02X189770000Y-104470000I8514112J-43829851D01*
G01*
X63135888Y-105180149D02*
G75*
G02X74770000Y-104470000I8514112J-43829851D01*
G01*
X178135888Y-10180149D02*
G75*
G02X189770000Y-9470000I8514112J-43829851D01*
G01*
X120650000Y-120010000D02*
X120650000Y-119010000D01*
X5650000Y-120010000D02*
X5650000Y-119010000D01*
X120650000Y-25010000D02*
X120650000Y-24010000D01*
X201720000Y-110070000D02*
X193450000Y-108150000D01*
X86720000Y-110070000D02*
X78450000Y-108150000D01*
X201720000Y-15070000D02*
X193450000Y-13150000D01*
X121650000Y-118010000D02*
X122650000Y-118010000D01*
X6650000Y-118010000D02*
X7650000Y-118010000D01*
X121650000Y-23010000D02*
X122650000Y-23010000D01*
X120650000Y-146010000D02*
X120650000Y-145010000D01*
X5650000Y-146010000D02*
X5650000Y-145010000D01*
X120650000Y-51010000D02*
X120650000Y-50010000D01*
X248150000Y-187510000D02*
X240650000Y-172510000D01*
X133150000Y-187510000D02*
X125650000Y-172510000D01*
X248150000Y-92510000D02*
X240650000Y-77510000D01*
X204480000Y-105010000D02*
X193364731Y-102527379D01*
X89480000Y-105010000D02*
X78364731Y-102527379D01*
X204480000Y-10010000D02*
X193364731Y-7527379D01*
X233282993Y-185631941D02*
X247150000Y-188510000D01*
X118300000Y-185650000D02*
X132150000Y-188510000D01*
X233282993Y-90631941D02*
X247150000Y-93510000D01*
X237650000Y-151010000D02*
X231480000Y-149490000D01*
X122650000Y-151010000D02*
X116480000Y-149490000D01*
X237650000Y-56010000D02*
X231480000Y-54490000D01*
X140587359Y-158986370D02*
X131650000Y-157010000D01*
X25587359Y-158986370D02*
X16650000Y-157010000D01*
X140587359Y-63986370D02*
X131650000Y-62010000D01*
X248150000Y-162010000D02*
X248150000Y-161510000D01*
X133150000Y-162010000D02*
X133150000Y-161510000D01*
X248150000Y-67010000D02*
X248150000Y-66510000D01*
X248150000Y-188010000D02*
X248150000Y-187510000D01*
X133150000Y-188010000D02*
X133150000Y-187510000D01*
X248150000Y-93010000D02*
X248150000Y-92510000D01*
X240650000Y-172510000D02*
X248150000Y-162510000D01*
X125650000Y-172510000D02*
X133150000Y-162510000D01*
X240650000Y-77510000D02*
X248150000Y-67510000D01*
X205457510Y-192161210D02*
G75*
G03X218662642Y-183520000I-18807510J43151210D01*
G01*
X90457510Y-192161210D02*
G75*
G03X103662642Y-183520000I-18807510J43151210D01*
G01*
X205457510Y-97161210D02*
G75*
G03X218662642Y-88520000I-18807510J43151210D01*
G01*
X121650000Y-147010000D02*
X120650000Y-146010000D01*
X6650000Y-147010000D02*
X5650000Y-146010000D01*
X121650000Y-52010000D02*
X120650000Y-51010000D01*
X218662642Y-183520000D02*
X220650000Y-183010000D01*
X103662642Y-183520000D02*
X105650000Y-183010000D01*
X218662642Y-88520000D02*
X220650000Y-88010000D01*
X29192796Y-74462186D02*
G75*
G02X25587359Y-64000000I42394562J20462185D01*
G01*
X87629041Y-98348040D02*
G75*
G02X30750000Y-77600000I-16041683J44361669D01*
G01*
X28400000Y-4500000D02*
X56200000Y-4500000D01*
X4000000Y-17850000D02*
X4000000Y-74800000D01*
X118282993Y-90631941D02*
X132150000Y-93510000D01*
X21800000Y-26200000D02*
X34650000Y-29010000D01*
X101154238Y-20139205D02*
G75*
G03X91400000Y-13610000I-29674238J-33780795D01*
G01*
X63135888Y-10180149D02*
G75*
G02X74770000Y-9470000I8514112J-43829851D01*
G01*
X255000000Y0D02*
X255000000Y-206000000D01*
X0Y-206000000D02*
X255000000Y-206000000D01*
X0Y0D02*
X0Y-206000000D01*
X0Y0D02*
X255000000Y0D01*
X132650000Y-66010000D02*
X122650000Y-63510000D01*
X78364731Y-7527379D02*
G75*
G03X74770000Y-9470000I-834731J-2752621D01*
G01*
X133150000Y-67010000D02*
X133150000Y-66510000D01*
X133150000Y-93010000D02*
X133150000Y-92510000D01*
X59376046Y-11075747D02*
G75*
G03X34650000Y-29010000I12273954J-42934253D01*
G01*
X79390000Y-10130000D02*
G75*
G03X78450000Y-13150000I-470000J-1510000D01*
G01*
X133150000Y-92510000D02*
X125650000Y-77510000D01*
X132650000Y-93510000D02*
X133150000Y-93010000D01*
X104030362Y-22883093D02*
G75*
G02X116480000Y-54490000I-32500362J-31056907D01*
G01*
X25587359Y-63986370D02*
X16650000Y-62010000D01*
X133150000Y-66510000D02*
X132650000Y-66010000D01*
X5650000Y-24010000D02*
X6650000Y-23010000D01*
X6650000Y-52010000D02*
X5650000Y-51010000D01*
X5650000Y-50010000D02*
X12650000Y-40010000D01*
X86720000Y-15070000D02*
X78450000Y-13150000D01*
X122650000Y-63510000D02*
X122650000Y-56010000D01*
X87670000Y-12050000D02*
X79420000Y-10140000D01*
X5650000Y-51010000D02*
X5650000Y-50010000D01*
X90457510Y-97161210D02*
G75*
G03X103662642Y-88520000I-18807510J43151210D01*
G01*
X12650000Y-40010000D02*
X5650000Y-25010000D01*
X103662642Y-88520000D02*
X105650000Y-88010000D01*
X89480000Y-10010000D02*
X78364731Y-7527379D01*
X5650000Y-25010000D02*
X5650000Y-24010000D01*
X105650000Y-88010000D02*
X114450000Y-89850000D01*
X16650000Y-62010000D02*
X16650000Y-54010000D01*
X16650000Y-54010000D02*
X6650000Y-52010000D01*
X91400000Y-13610000D02*
G75*
G03X89480000Y-10010000I-2760000J840000D01*
G01*
X132150000Y-93510000D02*
X132650000Y-93510000D01*
X87660000Y-12050000D02*
G75*
G02X86720000Y-15070000I-470000J-1510000D01*
G01*
X133150000Y-67510000D02*
X133150000Y-67010000D01*
X122650000Y-56010000D02*
X116480000Y-54490000D01*
X6650000Y-23010000D02*
X7650000Y-23010000D01*
X125650000Y-77510000D02*
X133150000Y-67510000D01*
X7650000Y-23010000D02*
X18532588Y-25428352D01*
M02*
