M48
;DRILL file {KiCad (5.0.0-rc2-100-g6d77e594b)} date Fri Sep 14 16:14:08 2018
;FORMAT={-:-/ absolute / inch / decimal}
FMAT,2
INCH,TZ
T1C0.0157
T2C0.0394
T3C0.0400
%
G90
G05
M72
T1
X0.6354Y-1.6535
X0.6354Y-5.3937
X0.7591Y-1.872
X0.7591Y-5.6122
X0.9181Y-2.2793
X0.9181Y-6.0195
X1.0709Y-2.265
X1.0709Y-6.0051
X1.1681Y-1.3669
X1.1681Y-5.1071
X1.1953Y-1.9799
X1.1953Y-5.7201
X1.2535Y-1.6933
X1.2535Y-5.4335
X1.3433Y-2.6157
X1.3433Y-6.3559
X1.3665Y-1.9594
X1.3665Y-5.6996
X1.3736Y-2.785
X1.3736Y-6.5252
X1.4091Y-3.1583
X1.4091Y-6.8984
X1.4264Y-1.648
X1.4264Y-5.3882
X1.4547Y-2.7823
X1.4547Y-6.5224
X1.4724Y-2.5752
X1.4724Y-6.3154
X1.4728Y-1.5524
X1.4728Y-5.2925
X1.4823Y-2.8531
X1.4823Y-6.5933
X1.5736Y-2.4343
X1.5736Y-6.1744
X1.5917Y-3.4114
X1.5917Y-7.1516
X1.611Y-3.035
X1.611Y-6.7752
X1.6303Y-3.2185
X1.6303Y-6.9587
X1.648Y-1.6256
X1.648Y-5.3657
X1.6665Y-1.8512
X1.6665Y-5.5913
X1.6832Y-3.0008
X1.6832Y-6.7409
X1.6881Y-3.4078
X1.6881Y-7.148
X1.7386Y-3.1531
X1.7386Y-6.8933
X1.7438Y-0.9221
X1.7438Y-4.6622
X1.7531Y-1.9394
X1.7531Y-5.6795
X1.7646Y-1.589
X1.7646Y-5.3291
X1.7658Y-2.4649
X1.7658Y-6.205
X1.7661Y-2.3343
X1.7661Y-6.0744
X1.7713Y-3.525
X1.7713Y-7.2651
X1.8024Y-1.9697
X1.8024Y-5.7098
X1.8051Y-3.3004
X1.8051Y-7.0406
X1.8089Y-3.4201
X1.8089Y-7.1602
X1.8161Y-3.1732
X1.8161Y-6.9134
X1.8429Y-2.0059
X1.8429Y-5.7461
X1.8555Y-3.1732
X1.8555Y-6.9134
X1.8561Y-2.6551
X1.8561Y-6.3952
X1.863Y-3.6346
X1.863Y-7.3748
X1.8669Y-3.0811
X1.8669Y-6.8213
X1.9134Y-1.8449
X1.9134Y-5.585
X1.915Y-1.9713
X1.915Y-5.7114
X1.9476Y-2.865
X1.9476Y-6.6051
X1.963Y-0.871
X1.963Y-4.6112
X1.9693Y-2.5161
X1.9693Y-6.2563
X1.9902Y-2.7402
X1.9902Y-6.4803
X2.0075Y-2.4496
X2.0075Y-6.1898
X2.0205Y-2.3102
X2.0205Y-6.0504
X2.0256Y-2.3622
X2.0256Y-6.1024
X2.027Y-2.8352
X2.027Y-6.5754
X2.0349Y-2.7781
X2.0349Y-6.5182
X2.0551Y-1.7717
X2.0551Y-5.5118
X2.0575Y-2.5744
X2.0575Y-6.3146
X2.0768Y-3.0028
X2.0768Y-6.7429
X2.0839Y-2.6823
X2.0839Y-6.4224
X2.1008Y-2.5744
X2.1008Y-6.3146
X2.1122Y-2.8382
X2.1122Y-6.5783
X2.1232Y-2.7606
X2.1232Y-6.5008
X2.1291Y-2.8854
X2.1291Y-6.6256
X2.1346Y-3.3531
X2.1346Y-7.0933
X2.1441Y-3.2528
X2.1441Y-6.9929
X2.1551Y-1.7453
X2.1551Y-5.4854
X2.2378Y-2.5685
X2.2378Y-6.3087
X2.2594Y-2.8469
X2.2594Y-6.587
X2.2992Y-2.0437
X2.2992Y-5.7838
X2.3161Y-2.8724
X2.3161Y-6.6126
X2.3213Y-3.6098
X2.3213Y-7.35
X2.3343Y-2.7516
X2.3343Y-6.4917
X2.337Y-3.6531
X2.337Y-7.3933
X2.3488Y-3.8539
X2.3488Y-7.5941
X2.3543Y-3.2039
X2.3543Y-6.9441
X2.3768Y-2.9445
X2.3768Y-6.6846
X2.3866Y-2.2335
X2.3866Y-5.9736
X2.4189Y-2.5465
X2.4189Y-6.2866
X2.424Y-2.3189
X2.424Y-6.0591
X2.4768Y-2.8504
X2.4768Y-6.5906
X2.4787Y-2.5579
X2.4787Y-6.298
X2.4858Y-2.2228
X2.4858Y-5.963
X2.5024Y-3.2398
X2.5024Y-6.9799
X2.5197Y-2.6331
X2.5197Y-6.3732
X2.5303Y-2.4173
X2.5303Y-6.1575
X2.5483Y-2.5557
X2.5483Y-6.2959
X2.5764Y-2.8516
X2.5764Y-6.5917
X2.5811Y-3.2634
X2.5811Y-7.0035
X2.5929Y-3.0626
X2.5929Y-6.8028
X2.5969Y-3.7791
X2.5969Y-7.5193
X2.6913Y-3.4563
X2.6913Y-3.6453
X2.6913Y-7.1965
X2.6913Y-7.3854
X2.7189Y-3.3697
X2.7189Y-7.1098
X2.7803Y-2.8457
X2.7803Y-6.5858
X2.8055Y-3.3776
X2.8055Y-7.1177
X2.8764Y-3.4563
X2.8764Y-7.1965
X2.8803Y-3.6453
X2.8803Y-7.3854
X2.8846Y-2.628
X2.8846Y-6.3681
X2.9217Y-3.2559
X2.9217Y-6.9961
X2.9709Y-3.5232
X2.9709Y-7.2634
X2.9748Y-3.2268
X2.9748Y-6.9669
X2.9866Y-3.0626
X2.9866Y-6.8028
X2.989Y-3.3409
X2.989Y-7.0811
X3.0535Y-3.8539
X3.0535Y-7.5941
X3.0756Y-2.6331
X3.0756Y-6.3732
X3.1087Y-3.0469
X3.1087Y-6.787
X3.1311Y-3.135
X3.1311Y-6.8752
X3.1925Y-2.763
X3.1925Y-6.5031
X3.2409Y-3.6051
X3.2409Y-7.3453
X3.2661Y-3.0941
X3.2661Y-6.8343
X3.2933Y-3.513
X3.2933Y-7.2531
X3.3409Y-3.8303
X3.3409Y-7.5705
X3.3756Y-3.2559
X3.3756Y-6.9961
X3.6567Y-2.4181
X3.6567Y-6.1583
X3.8937Y-2.587
X3.8937Y-6.3272
X3.9756Y-2.7953
X3.9756Y-6.5354
X4.024Y-3.2884
X4.024Y-7.0286
X4.0567Y-3.0331
X4.0567Y-6.7732
X4.0878Y-2.0787
X4.0878Y-5.8189
X4.1019Y-3.3409
X4.1019Y-7.081
X4.2461Y-3.3035
X4.2461Y-7.0437
X4.3228Y-3.2799
X4.3228Y-7.0201
X4.5201Y-2.9817
X4.5201Y-6.7219
X4.5689Y-2.3791
X4.5689Y-6.1193
X4.65Y-3.0433
X4.65Y-6.7835
X4.8181Y-3.485
X4.8181Y-7.2252
X5.163Y-1.6535
X5.163Y-5.3937
X5.2866Y-1.872
X5.2866Y-5.6122
X5.4457Y-2.2793
X5.4457Y-6.0195
X5.5984Y-2.265
X5.5984Y-6.0051
X5.6957Y-1.3669
X5.6957Y-5.1071
X5.7228Y-1.9799
X5.7228Y-5.7201
X5.7811Y-1.6933
X5.7811Y-5.4335
X5.8709Y-2.6157
X5.8709Y-6.3559
X5.8941Y-1.9594
X5.8941Y-5.6996
X5.9012Y-2.785
X5.9012Y-6.5252
X5.9366Y-3.1583
X5.9366Y-6.8984
X5.9539Y-1.648
X5.9539Y-5.3882
X5.9823Y-2.7823
X5.9823Y-6.5224
X6.Y-2.5752
X6.Y-6.3154
X6.0004Y-1.5524
X6.0004Y-5.2925
X6.0098Y-2.8531
X6.0098Y-6.5933
X6.1012Y-2.4343
X6.1012Y-6.1744
X6.1193Y-3.4114
X6.1193Y-7.1516
X6.1386Y-3.035
X6.1386Y-6.7752
X6.1579Y-3.2185
X6.1579Y-6.9587
X6.1756Y-1.6256
X6.1756Y-5.3657
X6.1941Y-1.8512
X6.1941Y-5.5913
X6.2108Y-3.0008
X6.2108Y-6.7409
X6.2157Y-3.4078
X6.2157Y-7.148
X6.2661Y-3.1531
X6.2661Y-6.8933
X6.2714Y-0.9221
X6.2714Y-4.6622
X6.2807Y-1.9394
X6.2807Y-5.6795
X6.2921Y-1.589
X6.2921Y-5.3291
X6.2934Y-2.4649
X6.2934Y-6.205
X6.2937Y-2.3343
X6.2937Y-6.0744
X6.2988Y-3.525
X6.2988Y-7.2651
X6.3299Y-1.9697
X6.3299Y-5.7098
X6.3327Y-3.3004
X6.3327Y-7.0406
X6.3364Y-3.4201
X6.3364Y-7.1602
X6.3437Y-3.1732
X6.3437Y-6.9134
X6.3705Y-2.0059
X6.3705Y-5.7461
X6.3831Y-3.1732
X6.3831Y-6.9134
X6.3836Y-2.6551
X6.3836Y-6.3952
X6.3906Y-3.6346
X6.3906Y-7.3748
X6.3945Y-3.0811
X6.3945Y-6.8213
X6.4409Y-1.8449
X6.4409Y-5.585
X6.4425Y-1.9713
X6.4425Y-5.7114
X6.4752Y-2.865
X6.4752Y-6.6051
X6.4906Y-0.871
X6.4906Y-4.6112
X6.4969Y-2.5161
X6.4969Y-6.2563
X6.5177Y-2.7402
X6.5177Y-6.4803
X6.535Y-2.4496
X6.535Y-6.1898
X6.548Y-2.3102
X6.548Y-6.0504
X6.5531Y-2.3622
X6.5531Y-6.1024
X6.5546Y-2.8352
X6.5546Y-6.5754
X6.5624Y-2.7781
X6.5624Y-6.5182
X6.5827Y-1.7717
X6.5827Y-5.5118
X6.585Y-2.5744
X6.585Y-6.3146
X6.6043Y-3.0028
X6.6043Y-6.7429
X6.6114Y-2.6823
X6.6114Y-6.4224
X6.6283Y-2.5744
X6.6283Y-6.3146
X6.6398Y-2.8382
X6.6398Y-6.5783
X6.6508Y-2.7606
X6.6508Y-6.5008
X6.6567Y-2.8854
X6.6567Y-6.6256
X6.6622Y-3.3531
X6.6622Y-7.0933
X6.6717Y-3.2528
X6.6717Y-6.9929
X6.6827Y-1.7453
X6.6827Y-5.4854
X6.7654Y-2.5685
X6.7654Y-6.3087
X6.787Y-2.8469
X6.787Y-6.587
X6.8268Y-2.0437
X6.8268Y-5.7838
X6.8437Y-2.8724
X6.8437Y-6.6126
X6.8488Y-3.6098
X6.8488Y-7.35
X6.8618Y-2.7516
X6.8618Y-6.4917
X6.8646Y-3.6531
X6.8646Y-7.3933
X6.8764Y-3.8539
X6.8764Y-7.5941
X6.8819Y-3.2039
X6.8819Y-6.9441
X6.9043Y-2.9445
X6.9043Y-6.6846
X6.9142Y-2.2335
X6.9142Y-5.9736
X6.9465Y-2.5465
X6.9465Y-6.2866
X6.9516Y-2.3189
X6.9516Y-6.0591
X7.0043Y-2.8504
X7.0043Y-6.5906
X7.0063Y-2.5579
X7.0063Y-6.298
X7.0134Y-2.2228
X7.0134Y-5.963
X7.0299Y-3.2398
X7.0299Y-6.9799
X7.0472Y-2.6331
X7.0472Y-6.3732
X7.0579Y-2.4173
X7.0579Y-6.1575
X7.0758Y-2.5557
X7.0758Y-6.2959
X7.1039Y-2.8516
X7.1039Y-6.5917
X7.1087Y-3.2634
X7.1087Y-7.0035
X7.1205Y-3.0626
X7.1205Y-6.8028
X7.1244Y-3.7791
X7.1244Y-7.5193
X7.2189Y-3.4563
X7.2189Y-3.6453
X7.2189Y-7.1965
X7.2189Y-7.3854
X7.2465Y-3.3697
X7.2465Y-7.1098
X7.3079Y-2.8457
X7.3079Y-6.5858
X7.3331Y-3.3776
X7.3331Y-7.1177
X7.4039Y-3.4563
X7.4039Y-7.1965
X7.4079Y-3.6453
X7.4079Y-7.3854
X7.4122Y-2.628
X7.4122Y-6.3681
X7.4492Y-3.2559
X7.4492Y-6.9961
X7.4984Y-3.5232
X7.4984Y-7.2634
X7.5024Y-3.2268
X7.5024Y-6.9669
X7.5142Y-3.0626
X7.5142Y-6.8028
X7.5165Y-3.3409
X7.5165Y-7.0811
X7.5811Y-3.8539
X7.5811Y-7.5941
X7.6031Y-2.6331
X7.6031Y-6.3732
X7.6362Y-3.0469
X7.6362Y-6.787
X7.6587Y-3.135
X7.6587Y-6.8752
X7.7201Y-2.763
X7.7201Y-6.5031
X7.7685Y-3.6051
X7.7685Y-7.3453
X7.7937Y-3.0941
X7.7937Y-6.8343
X7.8209Y-3.513
X7.8209Y-7.2531
X7.8685Y-3.8303
X7.8685Y-7.5705
X7.9031Y-3.2559
X7.9031Y-6.9961
X8.1843Y-2.4181
X8.1843Y-6.1583
X8.4213Y-2.587
X8.4213Y-6.3272
X8.5031Y-2.7953
X8.5031Y-6.5354
X8.5516Y-3.2884
X8.5516Y-7.0286
X8.5843Y-3.0331
X8.5843Y-6.7732
X8.6154Y-2.0787
X8.6154Y-5.8189
X8.6294Y-3.3409
X8.6294Y-7.081
X8.7736Y-3.3035
X8.7736Y-7.0437
X8.8504Y-3.2799
X8.8504Y-7.0201
X9.0476Y-2.9817
X9.0476Y-6.7219
X9.0965Y-2.3791
X9.0965Y-6.1193
X9.1776Y-3.0433
X9.1776Y-6.7835
X9.3457Y-3.485
X9.3457Y-7.2252
T2
X5.715Y-2.3815
X5.715Y-2.4815
X1.1874Y-2.3815
X1.1874Y-2.4815
X6.3776Y-4.7382
X6.3776Y-4.8382
X5.715Y-6.1217
X5.715Y-6.2217
X1.85Y-0.998
X1.85Y-1.098
X6.3776Y-0.998
X6.3776Y-1.098
X1.85Y-4.7382
X1.85Y-4.8382
X1.1874Y-6.1217
X1.1874Y-6.2217
T3
X4.1914Y-2.3922
X4.1914Y-2.6558
X4.3232Y-2.337
X4.3232Y-2.711
X4.455Y-2.3922
X4.455Y-2.6558
X4.1914Y-6.1324
X4.1914Y-6.396
X4.3232Y-6.0772
X4.3232Y-6.4512
X4.455Y-6.1324
X4.455Y-6.396
X8.719Y-6.1324
X8.719Y-6.396
X8.8508Y-6.0772
X8.8508Y-6.4512
X8.9826Y-6.1324
X8.9826Y-6.396
X8.719Y-2.3922
X8.719Y-2.6558
X8.8508Y-2.337
X8.8508Y-2.711
X8.9826Y-2.3922
X8.9826Y-2.6558
T0
M30
