M48
;DRILL file {KiCad (5.0.0-rc2-100-g6d77e594b)} date Fri Sep 14 16:14:08 2018
;FORMAT={-:-/ absolute / inch / decimal}
FMAT,2
INCH,TZ
T1C0.0236
%
G90
G05
M72
T1
X5.3386Y-4.7618
X1.1791Y-2.9941
X1.1988Y-3.0315
X8.5236Y-4.5453
X4.5984Y-7.3012
X5.687Y-6.6929
X2.3917Y-4.1614
X4.0571Y-4.5925
X3.4665Y-7.6063
X8.0315Y-7.5925
X8.5807Y-0.8563
X9.1654Y-7.3071
X0.8406Y-1.0276
X2.3898Y-0.4213
X5.7264Y-3.0315
X6.9567Y-4.1516
X8.6083Y-4.624
X9.1654Y-3.5669
X1.1772Y-6.7323
X8.0709Y-3.8366
X0.7795Y-4.7539
X5.3071Y-4.7539
X2.3563Y-4.1693
X5.687Y-2.9528
X2.4291Y-4.1516
X9.126Y-3.5571
X8.6083Y-0.8839
X2.3563Y-0.4291
X3.5433Y-7.5768
X8.5236Y-0.8051
X9.0866Y-3.5492
X4.0512Y-0.8563
X5.3681Y-1.0276
X3.9961Y-4.5453
X4.0807Y-4.624
X3.9961Y-0.8051
X5.3071Y-1.0138
X4.5236Y-7.2815
X1.1988Y-6.7717
X4.0256Y-4.5669
X3.5433Y-3.8366
X8.0335Y-3.8543
X6.9213Y-0.4213
X5.2756Y-1.0059
X9.0512Y-7.2815
X3.4665Y-3.8661
X6.9587Y-0.4114
X6.9193Y-4.1614
X1.1594Y-6.6929
X9.0886Y-7.2913
X4.6378Y-7.3071
X5.7264Y-6.7717
X5.7047Y-6.7323
X8.5551Y-4.5728
X7.9941Y-3.8661
X8.5531Y-0.8307
X5.7028Y-2.9941
X0.8406Y-4.7677
X2.4665Y-0.4035
X2.4665Y-4.1437
X4.0236Y-0.8307
X4.6378Y-3.5669
X4.5236Y-3.5413
X0.811Y-4.7618
X5.3386Y-1.0217
X4.5984Y-3.5591
X8.5827Y-4.5965
X4.5591Y-3.5492
X6.9941Y-0.4035
X5.2756Y-4.7461
X5.3681Y-4.7677
X7.9941Y-7.6063
X9.126Y-7.2992
X6.8839Y-0.4291
X0.7795Y-1.0138
X4.0807Y-0.8839
X0.748Y-1.0059
X4.561Y-7.2913
X1.1594Y-2.9528
X0.748Y-4.7461
X8.0709Y-7.5768
X2.4272Y-0.4114
X9.0512Y-3.5413
X3.5039Y-3.8524
X0.811Y-1.0217
X6.9941Y-4.1437
X6.8839Y-4.1693
X3.5059Y-7.5925
T0
M30
